<svg xmlns="http://www.w3.org/2000/svg" viewBox="0 0 43.61 27.27" enable-background="new 0 0 43.61 27.27"><path fill="#fff" d="m0 9.551c.039-.089.081-.177.117-.267.366-.907 1.276-1.41 2.271-1.255.887.138 1.577.918 1.634 1.865.02.322.003.646.003.995h9.601c0-.81 0-1.601 0-2.392.0001-.553-.006-1.106.003-1.66.013-.804.585-1.372 1.365-1.373.771 0 1.351.585 1.354 1.385.006 1.333.002 2.667.002 4.03h2.725v-.405c0-1.192-.005-2.384 0-3.577.003-.855.582-1.448 1.392-1.438.776.001 1.331.611 1.334 1.452.003 1.164 0 2.328 0 3.491v.484h2.727v-.44c0-1.191-.002-2.385.002-3.577 0-.808.565-1.402 1.327-1.407.807-.007 1.389.564 1.394 1.389.008 1.333.002 2.666.002 4.055.623 0 1.228.025 1.83-.004 3.02-.141 5.841-.928 8.286-2.786 1.794-1.361 3-3.109 3.387-5.366.073-.432.104-.873.122-1.311.03-.719.432-1.269 1.063-1.408.647-.142 1.245.168 1.569.814.032.063.063.124.097.187v25.293c-.022.014-.06.021-.066.039-.293.739-.981 1.01-1.613.869-.668-.144-1.02-.698-1.05-1.545-.046-1.322-.355-2.578-1.021-3.732-1.261-2.189-3.196-3.563-5.488-4.489-.609-.246-1.244-.43-1.931-.662.096.593.208 1.088.249 1.589.394 4.771-3.346 8.847-8.132 8.866-2.44.001-4.882.018-7.323-.004-.86-.009-1.737-.023-2.579-.182-4.111-.775-7.01-4.896-6.402-9.05.081-.551.213-1.094.319-1.636h-4.543c0 .395.012.763-.003 1.129-.038 1.03-.666 1.744-1.691 1.936-.906.171-1.814-.335-2.2-1.223-.037-.087-.088-.168-.133-.252v-8.431m20.396 6.812c-1.318.0001-2.639-.008-3.958.004-1.605.015-2.815 1.205-2.809 2.743.007 1.508 1.227 2.697 2.81 2.703 2.667.001 5.334.005 8-.005.293-.0001.598-.045.878-.129 1.245-.37 2.085-1.64 1.919-2.867-.19-1.42-1.284-2.423-2.713-2.445-1.377-.019-2.753-.004-4.128-.004"/></svg>