<svg xmlns="http://www.w3.org/2000/svg" viewBox="0 0 38.91 42.28" enable-background="new 0 0 38.91 42.28"><g fill="#fff"><path d="m15.816 42.28c-.041-.031-.078-.072-.125-.09-.754-.295-1.112-.848-1.111-1.656.004-3.219-.003-6.441.008-9.662.002-.332-.069-.533-.382-.715-.975-.568-1.258-1.514-1.262-2.572-.008-1.967-.003-3.936-.003-5.904 0-1.597 0-3.192 0-4.892-.162.147-.268.236-.366.334-1.081 1.079-2.16 2.161-3.242 3.24-.978.975-2.02.977-2.995.005-1.909-1.906-3.821-3.808-5.72-5.725-.998-1.01-.75-2.537.48-3.091.746-.336 1.52-.169 2.18.489 1.405 1.398 2.806 2.8 4.203 4.206.105.105.173.249.258.376.066.001.133.02.199.03.076-.132.128-.287.232-.391 1.298-1.31 2.615-2.601 3.902-3.923.383-.394.795-.668 1.345-.709 1.45-.106 2.901-.209 4.393-.316.536 4.281 1.06 8.461 1.583 12.641.037.002.074.004.112.006.524-4.18 1.047-8.361 1.575-12.571 1.658.021 3.283-.025 4.875.352.238.056.473.224.65.4 1.383 1.362 2.752 2.737 4.12 4.113.104.105.177.242.251.345 1.501-1.508 2.928-2.939 4.387-4.406-.058-.063-.153-.172-.256-.274-1.8-1.801-3.601-3.601-5.4-5.402-.536-.536-.619-1.018-.244-1.392.378-.376.848-.292 1.391.25 1.917 1.917 3.831 3.837 5.758 5.745.139.139.36.246.555.268.72.08 1.246.424 1.556 1.068.312.65.235 1.285-.171 1.875-.107.157-.248.295-.385.431-1.856 1.86-3.717 3.719-5.575 5.576-1.015 1.014-2.036 1.012-3.054-.005-1.063-1.06-2.123-2.122-3.185-3.182-.103-.103-.213-.199-.396-.368v.561c0 3.358.007 6.718-.006 10.07-.002.436-.06.879-.162 1.303-.149.627-.524 1.133-1.096 1.434-.324.172-.384.383-.383.717.012 3.068-.021 6.139.023 9.207.014 1.029-.25 1.797-1.252 2.199h-7.265"/><path d="m20.03 0c.508.162 1.038.274 1.518.496 2.078.967 3.187 3.296 2.648 5.49-.579 2.363-2.598 3.849-5.095 3.75-2.155-.086-4.069-1.823-4.444-4.03-.454-2.678 1.302-5.153 3.986-5.623.08-.014.154-.053.232-.08h1.155"/></g></svg>