<svg xmlns="http://www.w3.org/2000/svg" viewBox="0 0 27.95 44" enable-background="new 0 0 27.95 44"><path fill="#fff" d="m2.415.088c3.874 3.831 7.714 7.629 11.586 11.457 3.87-3.828 7.712-7.625 11.567-11.438.779.818 1.539 1.613 2.34 2.455-3.492 3.455-7.06 6.984-10.633 10.521.037.053.051.104.082.118 1.518.751 2.48 1.905 2.617 3.642.041.531.287.91.664 1.278 2.35 2.297 4.676 4.617 7.02 6.925.105.105.244.178.291.211-.834.864-1.607 1.664-2.48 2.568-1.367-1.42-2.736-2.844-4.107-4.268-.041.022-.08.045-.121.067.961 5.47 1.92 10.938 2.885 16.435-.215.031-.389.057-.631.091.209 1.308.414 2.599.627 3.937h-19.725c.181-1.32.359-2.615.54-3.935-.192-.031-.35-.058-.54-.087.428-2.579.853-5.139 1.284-7.74-.122.029-.198.048-.315.075.622-3.078 1.24-6.142 1.858-9.204-.035-.021-.07-.044-.104-.066-1.558 1.543-3.117 3.084-4.696 4.646-.793-.825-1.556-1.62-2.42-2.52.082-.051.249-.115.365-.229 2.481-2.445 4.96-4.891 7.424-7.354.197-.197.35-.494.402-.769.303-1.624 1.095-2.899 2.61-3.745-3.61-3.571-7.189-7.112-10.74-10.626.784-.814 1.548-1.607 2.354-2.445m13.53 42.34c0-1.723.008-3.346-.014-4.968-.002-.153-.203-.431-.32-.437-.945-.035-1.891-.019-2.839-.019v5.424h3.173zm-4.876-12.12h6.69v-3.02h-6.69v3.02"/></svg>