<svg xmlns="http://www.w3.org/2000/svg" viewBox="0 0 36.2 36.24" enable-background="new 0 0 36.2 36.24"><path fill="#fff" d="m30.18 18.9c-1.474-.639-1.549-.617-2.425.759-.999 1.568-1.996 3.138-2.987 4.709-.591.938-.463 1.464.479 2.062.819.519 1.631 1.05 2.458 1.557.755.463 1.374.314 1.856-.439 1.11-1.736 2.217-3.477 3.315-5.219.538-.854.438-1.4-.403-1.934-.373-.238-.454-.48-.352-.893.277-1.114.758-2.249.701-3.351-.057-1.084-.673-2.139-1.046-3.206-1.063-3.048-2.128-6.095-3.19-9.143-.045-.128-.068-.263-.103-.395.046-.038.093-.076.139-.114.891.807 1.844 1.555 2.658 2.432 3.336 3.599 4.971 7.86 4.911 12.787-.101 8.211-6.02 15.695-14.528 17.373-10.304 2.031-19.691-4.875-21.384-14.574-1.545-8.86 3.427-17.06 11.295-20.07 4.579-1.752 9.166-1.647 13.689.273.237.101.487.365.573.608 1.608 4.589 3.195 9.185 4.778 13.781.07.202.13.44.091.641-.151.785-.346 1.563-.525 2.352m-5.935-.687c-.033-3.434-2.758-6.2-6.086-6.177-3.542.025-6.233 2.763-6.199 6.305.033 3.331 2.847 6.03 6.265 6 3.267-.022 6.05-2.858 6.02-6.133m-18.343-6.38c.183-.162.609-.393.824-.752 1.384-2.304 3.254-4.04 5.724-5.122.164-.072.328-.166.46-.284.429-.384.498-1.047.155-1.544-.315-.455-.743-.595-1.27-.378-3.143 1.293-5.523 3.442-7.155 6.416-.435.793.103 1.653 1.262 1.664m3.863 1.839c.184-.148.543-.381.835-.681.714-.733 1.354-1.542 2.107-2.231.437-.399 1.033-.62 1.554-.928.607-.361.803-1.01.494-1.616-.293-.576-.803-.73-1.495-.418-1.993.897-3.557 2.285-4.676 4.163-.489.823-.009 1.681 1.181 1.711"/></svg>