<svg xmlns="http://www.w3.org/2000/svg" viewBox="0 0 44.5 44.5" enable-background="new 0 0 44.5 44.5"><path fill="#fff" d="m40.676 0h.782c.479.403.991.773 1.428 1.218.569.578 1.079 1.214 1.614 1.824v.695c-.594.733-1.188 1.466-1.787 2.205.521.729.557 1.416.027 1.937-.205.203-.506.422-.769.429-.432.011-.868-.146-1.29-.229-.386.357-.839.763-1.275 1.186-.316.307-.67.49-1.121.471-.289-.011-.594-.057-.865.014-.365.093-.789.195-1.042.442-2.612 2.547-5.198 5.121-7.784 7.694-.587.584-.607 1.304-.104 1.956.274.354.552.708.801 1.08.667.995 1.193 2.052 1.293 3.27.125 1.51-.412 2.821-1.436 3.867-1.224 1.249-2.557 2.39-3.852 3.566-2.822 2.563-2.313 1.771-3.674 5.104-.689 1.688-1.386 3.371-2.465 4.858-.903 1.245-2 2.238-3.52 2.686-.259.076-.517.152-.776.228h-1.651c-.035-.023-.069-.062-.107-.066-1.295-.193-2.463-.717-3.564-1.4-2.437-1.512-4.455-3.498-6.309-5.658-1.183-1.379-2.214-2.859-2.813-4.598-.166-.487-.279-.994-.417-1.491v-1.65c.029-.063.073-.123.085-.189.184-1.054.657-1.967 1.351-2.77.994-1.15 2.242-1.964 3.6-2.595 1.401-.65 2.831-1.238 4.26-1.825.829-.341 1.574-.774 2.155-1.479.451-.546.94-1.061 1.42-1.583 1.194-1.299 2.318-2.674 3.608-3.869 1.804-1.671 3.828-1.869 6-.73.75.393 1.447.898 2.137 1.395.718.517 1.402.51 2.025-.117 2.551-2.567 5.096-5.141 7.646-7.708.324-.326.482-.711.473-1.171-.005-.23.016-.464-.0001-.694-.036-.518.17-.913.535-1.27.422-.413.812-.859 1.22-1.297-.494-.649-.498-1.385.021-1.922.542-.561 1.247-.562 2.05-.015.697-.603 1.392-1.2 2.086-1.799m-20.577 22.361c-1.287-.296-2.509.267-3.093 1.398-.586 1.135-.322 2.527.634 3.354.977.845 2.37.923 3.41.194.968-.679 1.422-1.937 1.045-2.892-.902.737-1.612.808-2.211.218-.608-.597-.55-1.255.215-2.272m-4.789 10.862c-.088-.181-.168-.532-.381-.755-.947-.994-1.919-1.965-2.91-2.914-.535-.512-1.361-.451-1.877.072-.504.512-.569 1.321-.072 1.844.957 1 1.939 1.984 2.94 2.945.421.402.954.456 1.491.2.523-.249.751-.69.809-1.392"/></svg>