<svg xmlns="http://www.w3.org/2000/svg" viewBox="0 0 22.89 40" enable-background="new 0 0 22.89 40"><path fill="#fff" d="m22.864 7.147h-5.148v3.289h5.153v3.867h-5.165v3.286h5.172v3.858h-5.16v3.295h5.17c0 1.16.007 2.271-.003 3.382-.004.416-.017.837-.076 1.248-.269 1.882-1.838 3.416-3.841 3.697-.776.108-1.573.079-2.36.103-.4.012-.802.002-1.247.002v6.826h-7.707v-6.915c-1.085 0-2.124.037-3.16-.008-2.177-.095-3.839-1.466-4.304-3.558-.124-.56-.122-1.152-.135-1.73-.02-.979-.005-1.962-.005-2.99h13.532v-3.325h-13.478v-3.836h13.492v-3.31h-13.501v-3.836h13.479v-3.317h-13.572c.077-1.391-.088-2.752.346-4.062.588-1.773 2.403-3.08 4.398-3.092 4.484-.027 8.967-.03 13.451.002 2.097.014 3.841 1.325 4.499 3.274.098.291.155.607.162.915.021.964.008 1.929.008 2.935"/></svg>