<?xml version="1.0" standalone="no"?>
<!DOCTYPE svg PUBLIC "-//W3C//DTD SVG 1.1//EN" "http://www.w3.org/Graphics/SVG/1.1/DTD/svg11.dtd" >
<svg xmlns="http://www.w3.org/2000/svg">
<metadata></metadata>
<defs>
<font id="textaregular" horiz-adv-x="1498" >
<font-face units-per-em="2048" ascent="1536" descent="-512" />
<missing-glyph horiz-adv-x="563" />
<glyph horiz-adv-x="0" />
<glyph horiz-adv-x="682" />
<glyph horiz-adv-x="0" />
<glyph horiz-adv-x="0" />
<glyph unicode="&#xd;" horiz-adv-x="264" />
<glyph unicode=" "  horiz-adv-x="563" />
<glyph unicode="&#x09;" horiz-adv-x="563" />
<glyph unicode="&#xa0;" horiz-adv-x="563" />
<glyph unicode="!" horiz-adv-x="520" d="M141 106q0 51 35 87t86 36t87 -36t36 -87q0 -53 -36 -89.5t-87 -36.5t-86 36.5t-35 89.5zM151 1512h217l-46 -1091h-123z" />
<glyph unicode="&#x22;" horiz-adv-x="793" d="M130 1197l48 526h173l-111 -526h-110zM486 1197l48 526h171l-111 -526h-108z" />
<glyph unicode="#" horiz-adv-x="1541" d="M81 403l25 114h295l92 430h-284l22 113h288l89 409h118l-89 -409h406l89 409h123l-89 -409h295l-26 -113h-294l-93 -430h284l-22 -114h-288l-85 -403h-118l85 403h-408l-85 -403h-121l85 403h-294zM522 517h405l93 430h-407z" />
<glyph unicode="$" horiz-adv-x="1271" d="M101 144l96 133q5 -5 15 -13.5t45 -31.5t75 -41t103.5 -35t131.5 -22v571q-125 40 -209 80.5t-143 92t-85.5 115t-26.5 146.5q0 170 123.5 278t340.5 124v262h149v-262q83 -5 157 -22t120 -37.5t80.5 -40t48.5 -32.5l15 -13l-96 -146q-5 4 -13.5 11t-39.5 26t-65.5 34.5 t-90.5 30.5t-116 21v-522q133 -40 223 -86t144.5 -103t77.5 -121.5t23 -148.5q0 -174 -121 -289.5t-347 -135.5v-236h-149v236q-90 5 -170.5 25t-132.5 45t-90.5 49.5t-55.5 40.5zM284 1139q0 -80 62 -134.5t221 -107.5v476q-129 -14 -206 -74.5t-77 -159.5zM716 134 q145 16 215.5 83t70.5 173q0 93 -62 153.5t-224 117.5v-527z" />
<glyph unicode="%" horiz-adv-x="1639" d="M103 1164q0 77 22 145.5t62 121t102.5 83t138.5 30.5q100 0 174.5 -53t111 -138.5t36.5 -188.5q0 -76 -21.5 -144t-61.5 -121t-102 -84t-137 -31q-76 0 -138.5 31t-102.5 84t-62 121t-22 144zM116 0l1196 1512h197l-1201 -1512h-192zM260 1164q0 -105 44 -171t124 -66 q79 0 122.5 66t43.5 171t-43.5 171t-122.5 66q-81 0 -124.5 -65.5t-43.5 -171.5zM889 360q0 104 37.5 189.5t112.5 138t175 52.5t175 -52.5t112.5 -138t37.5 -189.5q0 -75 -22 -143t-62.5 -121t-103 -84.5t-137.5 -31.5t-137.5 31.5t-103 84.5t-62.5 121t-22 143zM1046 360 q0 -101 44.5 -168t123.5 -67q78 0 122 66.5t44 168.5q0 108 -43.5 173.5t-122.5 65.5t-123.5 -66t-44.5 -173z" />
<glyph unicode="&#x26;" horiz-adv-x="1473" d="M121 380q0 63 17 118.5t44.5 97t71 80.5t85 66.5t96.5 58.5l-36 40q-147 150 -147 335q0 75 28.5 142.5t79 117t125 79t162.5 29.5q180 0 288 -98.5t108 -253.5q0 -64 -18.5 -120.5t-47.5 -98.5t-74.5 -81.5t-88.5 -67t-101 -58.5l360 -363q63 120 93 297l164 -42 q-46 -224 -138 -374l284 -284h-257l-140 144q-173 -169 -434 -169q-123 0 -223 32t-165.5 87.5t-100.5 129t-35 156.5zM312 385q0 -78 46 -138t119.5 -91t159.5 -31q195 0 330 132l-412 423q-57 -31 -96 -59t-75 -64t-54 -79t-18 -93zM430 1176q0 -74 29.5 -128.5 t100.5 -125.5l37 -40q49 25 84.5 46t73 49.5t60.5 56.5t37.5 64.5t14.5 77.5q0 101 -60.5 160.5t-159.5 59.5q-94 0 -155.5 -60t-61.5 -160z" />
<glyph unicode="'" horiz-adv-x="437" d="M130 1197l48 526h173l-111 -526h-110z" />
<glyph unicode="(" horiz-adv-x="651" d="M101 723.5q0 151.5 24 292.5t62 250.5t92.5 211t108.5 174t116 139.5l106 -108q-65 -76 -120 -166.5t-104 -208.5t-76.5 -268.5t-27.5 -316t27.5 -316.5t76.5 -269.5t104 -208.5t120 -166l-106 -109q-62 67 -116 139.5t-108.5 174t-92.5 211.5t-62 251.5t-24 293z" />
<glyph unicode=")" horiz-adv-x="651" d="M43 -237q65 75 120 165.5t103.5 209t76 269.5t27.5 316.5t-27.5 316t-76.5 268.5t-103.5 208.5t-119.5 166.5l106 108q62 -67 116 -139.5t108.5 -174t92.5 -211t62 -250.5t24 -292.5t-24 -293t-62 -251.5t-92.5 -211.5t-108.5 -174t-116 -139.5z" />
<glyph unicode="*" horiz-adv-x="974" d="M113 1416l56 156l290 -169l-48 337h156l-60 -339l299 171l55 -156l-337 -53l242 -242l-134 -93l-149 302l-148 -302l-128 93l236 242z" />
<glyph unicode="+" horiz-adv-x="1293" d="M101 668v146h471v484h151v-484h471v-146h-471v-464h-151v464h-471z" />
<glyph unicode="," horiz-adv-x="507" d="M36 -209q86 21 138 71.5t57 115.5q-41 5 -69 37.5t-28 75.5q0 49 34.5 83.5t83.5 34.5t83.5 -34.5t34.5 -83.5v-21q0 -152 -81 -252.5t-224 -127.5z" />
<glyph unicode="-" horiz-adv-x="1002" d="M149 504v145h705v-145h-705z" />
<glyph unicode="." horiz-adv-x="503" d="M134 91q0 49 34.5 83.5t83.5 34.5t83.5 -34.5t34.5 -83.5t-34.5 -82.5t-83.5 -33.5t-83.5 33.5t-34.5 82.5z" />
<glyph unicode="/" horiz-adv-x="1428" d="M53 -282l1136 2255h184l-1128 -2252z" />
<glyph unicode="0" horiz-adv-x="1505" d="M118 753q0 131 27 250t80.5 217.5t129 170.5t177.5 112.5t221 40.5t221.5 -40.5t177.5 -112.5t128.5 -170.5t80 -217.5t26.5 -250q0 -130 -26.5 -248t-80 -216.5t-128.5 -171t-177.5 -113t-221.5 -40.5t-221 40.5t-177.5 113t-129 170.5t-80.5 216.5t-27 248.5zM298 753 q0 -103 18.5 -195t56 -169.5t91 -134.5t127.5 -88.5t161.5 -31.5t161.5 31.5t128 88.5t92 134.5t56.5 169.5t18.5 195t-18.5 196.5t-56.5 171.5t-92 135.5t-128 89.5t-161.5 32t-161.5 -32t-127.5 -89.5t-91 -135.5t-56 -171.5t-18.5 -196.5z" />
<glyph unicode="1" horiz-adv-x="740" d="M38 1348v164h522v-1512h-177v1348h-345z" />
<glyph unicode="2" horiz-adv-x="1233" d="M98 1332q8 9 21.5 23t60.5 50.5t99 64.5t134.5 51t168.5 23q122 0 219.5 -34.5t159.5 -96.5t95 -145t33 -182q0 -107 -36.5 -192.5t-125.5 -177.5l-535 -552h733v-164h-1009v118l634 658q90 93 123.5 158.5t33.5 144.5q0 129 -89.5 214t-238.5 85q-60 0 -119.5 -17.5 t-100 -39t-80 -51.5t-54 -44t-28.5 -29l-3 -3z" />
<glyph unicode="3" horiz-adv-x="1231" d="M98 176l106 129q5 -7 15 -19t45 -42t75 -53t104.5 -42t133.5 -19q160 0 256.5 88t96.5 220q0 146 -91.5 224t-269.5 78h-166v149l441 459h-714v164h954v-149l-462 -471q234 -4 360 -124t126 -330q0 -99 -35.5 -185t-101 -150.5t-166 -101.5t-223.5 -37q-68 0 -132 12 t-111 30.5t-88 41t-68 45t-47 41.5t-29 30z" />
<glyph unicode="4" horiz-adv-x="1382" d="M60 358v130l851 1024h132v-990h269v-164h-269v-358h-176v358h-807zM298 522h569v690l-535 -650q-4 -5 -12.5 -13.5t-15.5 -14.5l-6 -5v-7z" />
<glyph unicode="5" horiz-adv-x="1209" d="M96 176l106 129q5 -7 15 -19t45 -42t74.5 -53t104 -42t133.5 -19q161 0 257 86.5t96 239.5q0 137 -99 217t-273 80q-60 0 -117 -6.5t-94.5 -15.5t-68 -19t-44 -16.5t-15.5 -7.5l-38 30l24 794h831v-164h-673l-12 -454q100 22 212 22q135 0 239.5 -33.5t171.5 -94.5 t101 -145t34 -187q0 -107 -35.5 -197.5t-102 -156t-167 -102t-224.5 -36.5q-68 0 -131.5 12t-110.5 30.5t-87.5 41t-67.5 45t-46.5 41.5t-28.5 30z" />
<glyph unicode="6" horiz-adv-x="1306" d="M123 750q0 195 45.5 347.5t126.5 249.5t190.5 147t240.5 50q64 0 122.5 -12t100.5 -30.5t78 -41t59 -45t39.5 -41.5t23.5 -30l7 -12l-106 -128q-4 7 -12.5 19t-39 41.5t-65 52.5t-91 42t-116.5 19q-76 0 -139.5 -21t-117 -68.5t-90.5 -119t-58 -178t-21 -241.5v-7 q64 93 167.5 145t234.5 52q110 0 205 -37.5t159.5 -101.5t101 -149.5t36.5 -180.5q0 -100 -38 -191t-104.5 -158t-163 -107t-208.5 -40q-97 0 -179.5 25.5t-155 83.5t-123.5 146t-80 220.5t-29 299.5zM325 466q20 -86 56.5 -150t85.5 -101.5t104.5 -55.5t118.5 -18 q96 0 174 45t121 120t43 165q0 133 -91 218t-237 85q-149 0 -249.5 -83.5t-125.5 -224.5z" />
<glyph unicode="7" horiz-adv-x="1092" d="M70 1348v164h988v-118l-662 -1394h-215l653 1348h-764z" />
<glyph unicode="8" horiz-adv-x="1293" d="M121 421q0 123 60.5 220t169.5 152q-92 53 -142 139t-50 189q0 89 33.5 166.5t95.5 134.5t155.5 89.5t206 32.5t205 -32.5t154 -89.5t95 -134t33.5 -167q0 -103 -50.5 -189t-141.5 -139q108 -54 168 -151.5t60 -220.5q0 -93 -35.5 -175t-101 -145t-165.5 -100t-222 -37 t-223.5 37t-167.5 100t-101.5 145t-35.5 175zM300 420.5q0 -125.5 96 -208t253 -82.5q155 0 250.5 83t95.5 208t-95.5 207.5t-250.5 82.5q-157 0 -253 -82.5t-96 -208zM337 1123q0 -114 81 -187t231 -73q148 0 228 73.5t80 186.5q0 52 -19.5 97.5t-57 81t-97 56t-134.5 20.5 q-76 0 -136.5 -20.5t-98 -56t-57.5 -81t-20 -97.5z" />
<glyph unicode="9" horiz-adv-x="1298" d="M96 1048q0 100 38 191t104.5 158t163 107t208.5 40q97 0 179.5 -25.5t154.5 -83.5t123 -146t80 -220.5t29 -299.5q0 -196 -41.5 -349.5t-117.5 -253t-182 -151t-236 -51.5q-64 0 -122.5 12t-100.5 30.5t-78 41t-59.5 45t-39.5 41.5t-23 30l-7 12l105 129q5 -7 13.5 -19 t39 -42t65 -53t90.5 -42t117 -19q76 0 138.5 22.5t114 71t86 122t51 181t11.5 242.5v5q-67 -92 -170 -143.5t-233 -51.5q-110 0 -204.5 37.5t-159 101.5t-101 149.5t-36.5 180.5zM272 1048q0 -133 90.5 -218t236.5 -85q147 0 247 81t127 217q-21 89 -57.5 154.5t-84.5 104 t-103 57.5t-118 19q-96 0 -174 -45t-121 -120t-43 -165z" />
<glyph unicode=":" horiz-adv-x="533" d="M149 91q0 49 34.5 83.5t83.5 34.5t83.5 -34.5t34.5 -83.5t-34.5 -82.5t-83.5 -33.5t-83.5 33.5t-34.5 82.5zM149 957q0 49 34.5 83.5t83.5 34.5t83.5 -34.5t34.5 -83.5t-34.5 -82.5t-83.5 -33.5t-83.5 33.5t-34.5 82.5z" />
<glyph unicode=";" horiz-adv-x="589" d="M86 -209q86 21 138 71.5t58 115.5q-42 5 -70 37.5t-28 75.5q0 49 35 83.5t83.5 34.5t83.5 -34.5t35 -83.5v-21q0 -152 -81.5 -252.5t-223.5 -127.5zM184 957q0 49 35 83.5t83.5 34.5t83.5 -34.5t35 -83.5t-34.5 -82.5t-84 -33.5t-84 33.5t-34.5 82.5z" />
<glyph unicode="&#x3c;" horiz-adv-x="944" d="M93 716v75l686 497v-182l-486 -353l486 -352v-182z" />
<glyph unicode="=" horiz-adv-x="1178" d="M156 423v146h866v-146h-866zM156 904v146h866v-146h-866z" />
<glyph unicode="&#x3e;" horiz-adv-x="944" d="M166 219v182l486 352l-486 353v182l685 -497v-75z" />
<glyph unicode="?" horiz-adv-x="1050" d="M73 1411q6 5 17.5 14t50.5 32t82.5 40.5t111.5 32t139 14.5q224 0 354.5 -105t130.5 -288q0 -74 -22 -137.5t-57.5 -109.5t-78.5 -87t-86.5 -77.5t-80.5 -73t-62 -82t-28 -96.5l-5 -67h-123v98q0 57 20 109.5t52 93.5t70.5 80.5t77.5 77t71 75.5t52 84t20 95 q0 109 -83 176.5t-222 67.5q-56 0 -110.5 -12t-92 -28.5t-67 -33t-43.5 -28.5l-15 -12zM363 106q0 51 35 87t85 36q51 0 88 -36.5t37 -86.5q0 -52 -37 -89t-88 -37q-50 0 -85 36.5t-35 89.5z" />
<glyph unicode="@" horiz-adv-x="2538" d="M98 695q0 158 39.5 308.5t111.5 281t179 240t237.5 187.5t291.5 121.5t336 43.5q160 0 310 -39t274 -109.5t227.5 -170t174.5 -218.5t110 -257.5t39 -284.5q0 -142 -39 -266.5t-107.5 -213t-165 -139.5t-207.5 -51q-74 0 -134 20t-100 55t-65.5 77.5t-37.5 92.5h-15 q-10 -18 -28 -40.5t-57.5 -57.5t-85.5 -62.5t-115.5 -48t-145.5 -20.5q-130 0 -231 57.5t-157.5 165t-56.5 248.5q0 140 48 261t127.5 202.5t184.5 127.5t220 46q73 0 135 -17t100 -41t68 -56.5t44 -57t23 -49.5l50 195h128l-75 -642q-7 -44 -7 -101q0 -94 51 -151.5 t143 -57.5q68 0 129.5 35t108 99.5t74.5 164t28 220.5q0 95 -20.5 191t-61.5 188.5t-99.5 175.5t-140 153.5t-177.5 122t-216 80.5t-252 29q-151 0 -291 -38.5t-254 -106.5t-208.5 -164.5t-158.5 -210.5t-99 -245t-35 -268q0 -142 37.5 -276.5t104 -248.5t162.5 -210 t209.5 -163t247 -104t274.5 -37q89 0 176.5 14.5t149 35.5t110 42t72.5 36l24 14l61 -128q-9 -6 -25.5 -16.5t-74 -37.5t-121 -47.5t-165 -37.5t-207.5 -17q-172 0 -330.5 44t-288 123t-236 189t-178.5 239.5t-111.5 278t-39.5 302.5zM861 637q0 -163 83.5 -253.5 t221.5 -90.5q116 0 212 64.5t150 174t54 239.5q0 156 -88.5 244t-226.5 88q-78 0 -151.5 -34t-130 -93.5t-90.5 -148t-34 -190.5z" />
<glyph unicode="A" d="M22 0l648 1512h159l647 -1512h-181l-144 335h-805l-142 -335h-182zM416 499h668l-334 785z" />
<glyph unicode="B" horiz-adv-x="1520" d="M207 0v1512h637q244 0 380 -105t136 -304q0 -123 -61 -207.5t-170 -121.5v-8q128 -33 203.5 -122.5t75.5 -225.5q0 -105 -38.5 -185.5t-110 -131t-168.5 -76t-216 -25.5h-668zM383 164h496q100 0 176.5 27.5t123.5 88.5t47 148q0 79 -46 137t-121 86.5t-172 31.5h-504 v-519zM383 846h458q155 0 246 67.5t91 182.5q0 252 -337 252h-458v-502z" />
<glyph unicode="C" horiz-adv-x="1423" d="M103 753q0 165 55 311t152.5 251.5t239 167t306.5 61.5q69 0 134.5 -11t114 -28t91.5 -37.5t72 -41t50 -37.5t30 -28l10 -10l-101 -137q-6 7 -17.5 18t-51 39t-83 49.5t-110.5 39.5t-136 18q-125 0 -233 -50t-182.5 -134t-117 -199t-42.5 -242t42.5 -241t117 -198 t182.5 -134t233 -50q69 0 135.5 17t112 41.5t81 48.5t52.5 41l17 17l101 -136q-7 -8 -20 -21t-59 -46.5t-99.5 -59.5t-141 -47t-182.5 -21q-165 0 -306.5 61.5t-239 167.5t-152.5 251t-55 309z" />
<glyph unicode="D" horiz-adv-x="1586" d="M207 0v1512h504q171 0 313.5 -53.5t242.5 -151t155.5 -239t55.5 -313t-55.5 -313.5t-155.5 -239t-242.5 -150t-313.5 -53h-504zM383 164h317q127 0 237 40.5t190.5 115t126.5 186.5t46 249t-46 249.5t-126.5 187.5t-190.5 115.5t-237 40.5h-317v-1184z" />
<glyph unicode="E" horiz-adv-x="1370" d="M207 0v1512h1060v-164h-884v-502h756v-163h-756v-519h884v-164h-1060z" />
<glyph unicode="F" horiz-adv-x="1337" d="M207 0v1512h1060v-164h-884v-502h756v-163h-756v-683h-176z" />
<glyph unicode="G" horiz-adv-x="1606" d="M106 753q0 166 53.5 311t150 251t238.5 167.5t311 61.5q75 0 145 -11t122 -28.5t97.5 -38.5t76 -42.5t52.5 -39t32 -27.5l10 -11l-104 -134q-6 6 -18 17.5t-54 40t-88 50.5t-120 40t-151 18q-131 0 -239.5 -49.5t-181 -134.5t-112 -199t-39.5 -242t38.5 -241t109 -198 t178 -134.5t236.5 -49.5q147 0 260.5 65t176 183.5t62.5 273.5v11h-534v164h710v-106q0 -229 -79.5 -399.5t-232.5 -264t-363 -93.5q-135 0 -253 39.5t-207 111.5t-153.5 170t-97 217t-32.5 251z" />
<glyph unicode="H" horiz-adv-x="1621" d="M207 0v1512h176v-685h857v685h176v-1512h-176v663h-857v-663h-176z" />
<glyph unicode="I" horiz-adv-x="589" d="M207 0v1512h176v-1512h-176z" />
<glyph unicode="J" horiz-adv-x="1082" d="M46 89l84 132q5 -3 13.5 -9t35.5 -21t56 -26.5t72 -21t85 -9.5q160 0 242 93t82 292v993h176v-1029q0 -251 -124 -385t-360 -134q-65 0 -125.5 13t-99.5 29t-73 36.5t-46 30t-18 16.5z" />
<glyph unicode="K" horiz-adv-x="1430" d="M207 0v1512h176v-829l795 829h202v-31l-572 -594l582 -856v-31h-186q-365 539 -519 758l-302 -318v-440h-176z" />
<glyph unicode="L" horiz-adv-x="1231" d="M207 0v1512h176v-1348h785v-164h-961z" />
<glyph unicode="M" horiz-adv-x="1820" d="M207 0v1512h123l581 -741l582 741h122v-1512h-175v1184l-503 -648h-50l-504 637v-1173h-176z" />
<glyph unicode="N" horiz-adv-x="1674" d="M207 0v1512h128l958 -1195v1195h176v-1512h-126l-960 1199v-1199h-176z" />
<glyph unicode="O" horiz-adv-x="1704" d="M106 753q0 166 53 311t148.5 251t236 167.5t307.5 61.5q169 0 310 -61t236.5 -167.5t148.5 -251.5t53 -311q0 -132 -33.5 -251.5t-98 -217t-154.5 -169.5t-208.5 -111.5t-253.5 -39.5q-166 0 -307 61.5t-236.5 167.5t-148.5 250.5t-53 309.5zM287 753q0 -127 39.5 -240 t111 -197t179 -133t234.5 -49q129 0 237 49t180 133t112.5 197t40.5 240q0 128 -40.5 242t-112.5 199t-180 134.5t-237 49.5q-127 0 -234 -49.5t-179 -134.5t-111.5 -199t-39.5 -242z" />
<glyph unicode="P" horiz-adv-x="1452" d="M207 0v1512h594q271 0 422.5 -131t151.5 -374q0 -168 -72 -287t-202.5 -178t-309.5 -59h-408v-483h-176zM383 647h413q191 0 296 86.5t105 268.5q0 171 -107 258.5t-294 87.5h-413v-701z" />
<glyph unicode="Q" horiz-adv-x="1704" d="M106 753q0 166 53 311t148.5 251t236 167.5t307.5 61.5q169 0 310 -61t236.5 -167.5t148.5 -251.5t53 -311q0 -236 -104 -424t-288 -283l219 -354h-202l-181 296q-114 -24 -192 -24q-166 0 -307 61.5t-236.5 167.5t-148.5 250.5t-53 309.5zM287 753q0 -127 39.5 -240 t111 -197t179 -133t234.5 -49q129 0 237 49t180 133t112.5 197t40.5 240q0 128 -40.5 242t-112.5 199t-180 134.5t-237 49.5q-127 0 -234 -49.5t-179 -134.5t-111.5 -199t-39.5 -242z" />
<glyph unicode="R" horiz-adv-x="1505" d="M207 0v1512h591q273 0 425 -130.5t152 -374.5q0 -182 -91 -303.5t-251 -169.5v-8l375 -483v-43h-184l-390 502h-451v-502h-176zM383 665h434q84 0 152.5 20.5t119 61.5t78 106t27.5 149q0 171 -105.5 258.5t-292.5 87.5h-413v-683z" />
<glyph unicode="S" horiz-adv-x="1281" d="M106 144l96 133q6 -6 18 -16t53 -35t87.5 -44.5t121 -35.5t153.5 -16q189 0 280.5 69.5t91.5 190.5q0 73 -34.5 122.5t-119.5 92.5t-243 90q-136 41 -226.5 82t-154.5 93.5t-92.5 117.5t-28.5 151q0 186 144 295.5t393 109.5q98 0 185.5 -15.5t142 -37t95 -43.5t56.5 -37 l17 -15l-95 -146q-6 5 -16.5 13.5t-48 30.5t-80.5 39t-112.5 31t-143.5 14q-159 0 -257 -62.5t-98 -176.5q0 -63 36.5 -107.5t121 -84.5t240.5 -86q143 -41 239.5 -88t154.5 -104.5t82.5 -123.5t24.5 -153q0 -92 -35 -170t-103 -135.5t-174 -90t-240 -32.5q-74 0 -144 10 t-121.5 26t-96.5 35t-75.5 38t-52 35t-31.5 26z" />
<glyph unicode="T" horiz-adv-x="1306" d="M63 1348v164h1182v-164h-505v-1348h-175v1348h-502z" />
<glyph unicode="U" horiz-adv-x="1586" d="M187 632v880h176v-880q0 -110 27.5 -201t80 -158.5t135 -105t187.5 -37.5q107 0 190 37.5t135 105t79 158.5t27 201v880h177v-880q0 -148 -41 -271t-117.5 -211t-191.5 -137t-258 -49q-188 0 -326 84.5t-209 235t-71 348.5z" />
<glyph unicode="V" d="M22 1512h182l544 -1286l547 1286h181l-647 -1512h-159z" />
<glyph unicode="W" horiz-adv-x="2029" d="M41 1512h180l378 -1243l331 1243h171l327 -1243l380 1243h182l-504 -1512h-138l-333 1240l-332 -1240h-139z" />
<glyph unicode="X" horiz-adv-x="1327" d="M36 0l498 776l-481 736h211l353 -543l48 -92l51 92l349 543h209l-483 -736l504 -776h-211l-366 565l-55 103l-58 -103l-360 -565h-209z" />
<glyph unicode="Y" horiz-adv-x="1334" d="M22 1512h207l393 -676l46 -96h5l48 96l387 676h204l-557 -933v-579h-176v579z" />
<glyph unicode="Z" horiz-adv-x="1314" d="M75 0v118l923 1230h-892v164h1129v-118l-905 -1230h884v-164h-1139z" />
<glyph unicode="[" horiz-adv-x="805" d="M161 -327v2091h605v-147h-434v-1798h434v-146h-605z" />
<glyph unicode="\" horiz-adv-x="894" d="M86 2010h178l544 -2332h-176z" />
<glyph unicode="]" horiz-adv-x="805" d="M41 -181h433v1798h-433v147h604v-2091h-604v146z" />
<glyph unicode="^" horiz-adv-x="1099" d="M123 1252l368 493h117l370 -493h-159l-273 370l-269 -370h-154z" />
<glyph unicode="_" horiz-adv-x="1384" d="M137 -101h1113v-146h-1113v146z" />
<glyph unicode="`" horiz-adv-x="702" d="M156 1584l212 33l134 -365h-127z" />
<glyph unicode="a" horiz-adv-x="1161" d="M77 312q0 156 126.5 251t358.5 95q148 0 274 -43v37q0 278 -302 278q-47 0 -95.5 -9t-83.5 -21.5t-63.5 -25t-43.5 -21.5l-14 -9l-68 144q6 4 18 10.5t50.5 23t80 29t105 23t126.5 10.5q120 0 208.5 -31t142 -88.5t79.5 -135.5t26 -177v-652h-120l-21 146h-12 q-53 -79 -146 -125t-217 -46q-96 0 -174 26.5t-129 72.5t-78.5 107t-27.5 131zM255 317q0 -89 66.5 -146.5t187.5 -57.5q70 0 132 23.5t104.5 63t66.5 92t24 109.5v75q-114 53 -259 53q-165 0 -243.5 -55t-78.5 -157z" />
<glyph unicode="b" horiz-adv-x="1317" d="M169 0v1524h174v-625h8q1 4 4.5 10.5t18 26t32 36.5t49 38.5t68.5 37t90.5 26t114.5 10.5q101 0 191 -41t155.5 -113t103.5 -176t38 -225q0 -123 -38 -227.5t-104 -175.5t-157 -111t-194 -40q-63 0 -119.5 11.5t-95.5 30t-72 41t-53.5 45t-34.5 40.5t-20 30l-6 11h-7 l-20 -184h-126zM332 529q0 -94 28.5 -172t77.5 -129t114 -79t138 -28q151 0 251 114.5t100 293.5q0 180 -100 294t-251 114q-73 0 -138 -28t-114 -79t-77.5 -129t-28.5 -172z" />
<glyph unicode="c" horiz-adv-x="1034" d="M101 526.5q0 162.5 66 289.5t185.5 197.5t272.5 70.5q66 0 124 -10t92.5 -23.5t60 -27.5t35.5 -23l10 -10l-53 -131q-4 3 -11.5 8t-33.5 18.5t-54.5 24t-72 19t-87.5 8.5q-75 0 -140 -27.5t-114 -79t-76.5 -130t-27.5 -174.5q0 -97 27.5 -175t76.5 -128t113.5 -76 t140.5 -26q44 0 87 8t73 19.5t53.5 23t34.5 19.5l11 8l48 -131q-3 -4 -10 -10.5t-34 -22t-60 -28t-90.5 -22.5t-122.5 -10q-154 0 -273 69t-185 194.5t-66 288z" />
<glyph unicode="d" horiz-adv-x="1319" d="M101 529q0 121 38 225t104.5 176t157 113t193.5 41q59 0 111 -9.5t89 -24t68 -32.5t50 -36t32.5 -32.5t19.5 -23.5l5 -10h9v608h173v-1524h-120l-26 169h-7q-3 -5 -7 -11.5t-20 -27t-35.5 -38.5t-53.5 -40.5t-72.5 -38.5t-94 -27t-116.5 -11q-104 0 -195.5 40t-158.5 111 t-105.5 175.5t-38.5 227.5zM277 529q0 -178 101 -293t252 -115q74 0 139.5 28t114.5 79t77.5 129t28.5 172t-28.5 172t-77.5 129t-114.5 79t-139.5 28q-99 0 -179.5 -51t-127 -144.5t-46.5 -212.5z" />
<glyph unicode="e" horiz-adv-x="1150" d="M101 526q0 160 60 286t173.5 199t262.5 73q111 0 200.5 -41t147 -112.5t88 -166.5t30.5 -207v-43h-789q2 -95 31 -170.5t79 -124t116 -73.5t145 -25q54 0 105 10t84.5 25t60 30t38.5 25l12 10l65 -125q-5 -5 -14 -13.5t-42.5 -30t-72.5 -37.5t-105.5 -29.5t-140.5 -13.5 q-163 0 -284.5 69.5t-185.5 195t-64 289.5zM284 654h600q-18 139 -91.5 210t-198.5 71q-128 0 -206.5 -70t-103.5 -211z" />
<glyph unicode="f" horiz-adv-x="765" d="M48 916v142h199v131q0 165 94.5 260t259.5 95q64 0 120 -13t79 -25l24 -13l-53 -140q-8 4 -22.5 10t-58 16.5t-85.5 10.5q-84 0 -134 -52t-50 -146v-134h315v-142h-315v-916h-174v916h-199z" />
<glyph unicode="g" horiz-adv-x="1170" d="M96 -169q0 164 194 250q-57 19 -96 45t-59.5 57t-28.5 61.5t-8 67.5q0 147 149 207q-53 86 -53 192q0 74 26 139.5t74.5 117t125 81.5t172.5 30q78 0 151 -21h358v-138h-166v-9q2 -1 6.5 -5t16 -20.5t20 -37.5t15.5 -59t7 -84q0 -66 -26 -128t-75.5 -113t-129 -82 t-177.5 -31q-151 0 -255 72q-51 -20 -69 -44t-18 -62q0 -22 7 -39t30.5 -34.5t65 -30t114 -22.5t173.5 -15q135 -6 229.5 -30t149 -65.5t78.5 -94t24 -123.5q0 -68 -36 -130t-102 -109.5t-168 -76t-226 -28.5q-127 0 -223 23.5t-154.5 66t-87 98.5t-28.5 124zM264 -166 q0 -76 82.5 -126.5t242.5 -50.5q177 0 269 56t92 143q0 34 -16.5 63t-51 53.5t-96.5 40t-146 18.5q-113 4 -164 10q-117 -40 -164.5 -90.5t-47.5 -116.5zM339 713q0 -97 68.5 -162t184.5 -65q120 0 189.5 65t69.5 162q0 96 -70 162.5t-189 66.5q-115 0 -184 -67t-69 -162z " />
<glyph unicode="h" horiz-adv-x="1281" d="M169 0v1524h174v-570h8q60 70 139.5 100t197.5 30q135 0 235 -62.5t151 -172t51 -252.5v-597h-173v574q0 106 -33 186.5t-101.5 128.5t-165.5 48q-62 0 -114 -20t-86.5 -51.5t-59 -72.5t-36 -81.5t-13.5 -79.5v-632h-174z" />
<glyph unicode="i" horiz-adv-x="520" d="M141 1406q0 49 35 83.5t83.5 34.5t83.5 -34.5t35 -83.5t-34.5 -82.5t-84 -33.5t-84 33.5t-34.5 82.5zM173 0v1058h175v-1058h-175z" />
<glyph unicode="j" horiz-adv-x="520" d="M17 -247h21q68 0 101.5 37.5t33.5 101.5v1166h175v-1174q0 -131 -67 -203.5t-206 -72.5h-58v145zM141 1406q0 49 35 83.5t83.5 34.5t83.5 -34.5t35 -83.5t-34.5 -82.5t-84 -33.5t-84 33.5t-34.5 82.5z" />
<glyph unicode="k" horiz-adv-x="1108" d="M169 0v1524h174v-932h5l501 466h230l-490 -459l490 -599h-216l-397 483l-123 -115v-368h-174z" />
<glyph unicode="l" horiz-adv-x="526" d="M176 0v1524h175v-1524h-175z" />
<glyph unicode="m" horiz-adv-x="2047" d="M169 0v1058h124l15 -156h12q65 95 147 138.5t213 43.5t228.5 -53.5t151.5 -148.5h13q38 64 86 106.5t124 69t176 26.5q135 0 234 -62.5t149 -171.5t50 -253v-597h-174v577q0 104 -32 184t-100.5 128t-164.5 48q-62 0 -113.5 -18.5t-85.5 -49t-58 -70.5t-34.5 -80.5 t-11.5 -81.5v-637h-173v620q0 141 -79 229t-224 88q-60 0 -110.5 -18.5t-83.5 -48.5t-56.5 -69.5t-34.5 -78.5t-14 -77v-645h-174z" />
<glyph unicode="n" horiz-adv-x="1284" d="M169 0v1058h124l15 -156h12q55 89 143.5 135.5t226.5 46.5q136 0 236 -62.5t151.5 -172t51.5 -252.5v-597h-175v577q0 104 -33 184t-102.5 128t-166.5 48q-62 0 -114 -19.5t-86.5 -51t-59 -72t-36 -81t-13.5 -78.5v-635h-174z" />
<glyph unicode="o" horiz-adv-x="1261" d="M98 524q0 124 42 229.5t113.5 177.5t169 112.5t207.5 40.5q109 0 206.5 -40.5t170 -112.5t115 -178t42.5 -229t-42.5 -227t-115 -174t-170 -109t-206.5 -39q-111 0 -208 39t-168.5 109t-113.5 173.5t-42 227.5zM269 526q0 -93 29 -171.5t78.5 -130t115 -80t138.5 -28.5 t138 28.5t114.5 80t78.5 130t29 171.5q0 94 -29 172.5t-78 131.5t-114.5 82.5t-138.5 29.5t-138.5 -29.5t-115 -82.5t-78.5 -131.5t-29 -172.5z" />
<glyph unicode="p" horiz-adv-x="1317" d="M169 -392v1450h124l19 -156h18q2 3 6 9.5t20.5 25.5t36.5 36.5t53.5 38.5t71.5 36t92 25.5t113 10.5q103 0 194 -40t157 -111.5t104 -176t38 -227.5q0 -121 -38 -225t-103.5 -175.5t-155.5 -112.5t-191 -41q-61 0 -114.5 9.5t-90.5 24t-68 32t-50 35.5t-31.5 32.5 t-17.5 23.5l-5 9h-8v-533h-174zM332 529q0 -94 28.5 -172t77.5 -129t114 -79t138 -28q151 0 251 114t100 294q0 178 -100 293t-251 115q-73 0 -138 -28t-114 -79t-77.5 -129t-28.5 -172z" />
<glyph unicode="q" horiz-adv-x="1319" d="M101 529q0 123 38.5 227.5t105.5 176t158.5 111.5t195.5 40q62 0 117.5 -11.5t94 -30t71 -40.5t52.5 -44t34 -40t19 -30l6 -11h9l24 181h125v-1450h-173v551h-9q-1 -4 -4.5 -10.5t-18 -25.5t-32 -36.5t-49 -38.5t-68 -36.5t-90 -26t-113.5 -10.5q-103 0 -193.5 40.5 t-157 112.5t-104.5 176t-38 225zM277 529q0 -119 46.5 -212.5t127 -144.5t179.5 -51q74 0 139.5 28t114.5 79t77.5 129t28.5 172t-28.5 172t-77.5 129t-114.5 79t-139.5 28q-151 0 -252 -115t-101 -293z" />
<glyph unicode="r" horiz-adv-x="714" d="M169 0v1058h124l15 -186h9q38 89 120 138.5t188 49.5h60v-140h-58q-116 0 -200 -85t-84 -210v-625h-174z" />
<glyph unicode="s" horiz-adv-x="1029" d="M98 106l78 120q6 -4 17 -11t47.5 -24.5t75.5 -31.5t99.5 -25t120.5 -11q125 0 184 42t59 114q0 38 -23.5 67.5t-63 49t-90.5 35.5t-107.5 31.5t-112.5 32.5t-107 42t-90.5 57t-63 80.5t-23.5 109.5q0 63 23.5 116.5t70 95t122.5 65t174 23.5q75 0 145.5 -9t118 -21.5 t84 -25.5t53.5 -22l18 -8l-71 -149l-15 9t-43.5 20.5t-69.5 26t-91.5 21t-112.5 9.5q-244 0 -244 -147q0 -36 23 -63t62.5 -44.5t90.5 -32t107.5 -29t112.5 -31t107 -42t90.5 -59t63 -84.5t23.5 -116q0 -64 -22.5 -118.5t-69.5 -98.5t-128 -69.5t-189 -25.5 q-84 0 -159.5 13.5t-123 33t-83.5 38.5t-51 32z" />
<glyph unicode="t" horiz-adv-x="805" d="M38 916v142h199v322h174v-322h315v-142h-315v-621q0 -172 156 -172q34 0 73.5 12t60.5 24l22 12l58 -125q-4 -3 -10.5 -8t-29.5 -17t-48 -21t-63.5 -17t-77.5 -8q-158 0 -236.5 84.5t-78.5 238.5v618h-199z" />
<glyph unicode="u" horiz-adv-x="1276" d="M156 461v597h174v-577q0 -78 17.5 -143t52.5 -114t91 -76t129 -27q62 0 115 19.5t88.5 50.5t60.5 71t37 80t14 79v637h173v-1058h-110l-31 151h-8q-7 -13 -20 -30t-45 -44.5t-71.5 -48.5t-102.5 -37t-136 -16q-135 0 -232.5 62t-146.5 171t-49 253z" />
<glyph unicode="v" horiz-adv-x="1147" d="M31 1058h193l328 -784q17 -38 17 -70h10q0 26 20 70l328 784h191l-483 -1058h-121z" />
<glyph unicode="w" horiz-adv-x="1642" d="M43 1058h181l252 -784q15 -44 15 -70h21q0 10 8 37.5t9 32.5l224 784h146l224 -784q16 -36 16 -70h20q0 26 14 70l257 784h169l-390 -1058h-151l-219 781q-12 33 -12 68h-10q0 -25 -16 -68l-219 -781h-149z" />
<glyph unicode="x" horiz-adv-x="1087" d="M38 0l402 552l-375 506h202l274 -395h8l278 395h199l-379 -506l406 -552h-202l-302 440h-8l-307 -440h-196z" />
<glyph unicode="y" horiz-adv-x="1140" d="M33 1058h191l333 -784q17 -51 17 -70h10q0 26 15 70l331 784h178l-639 -1450h-182l206 442z" />
<glyph unicode="z" horiz-adv-x="1060" d="M91 0v89l645 825h-643v144h876v-80l-637 -834h637v-144h-878z" />
<glyph unicode="{" horiz-adv-x="685" d="M38 647v151h63q82 0 126.5 63t44.5 185v435q0 145 73 225t224 95l28 -149q-79 -12 -110 -51.5t-31 -139.5v-428q0 -246 -153 -302v-24q76 -26 114.5 -103t38.5 -191v-435q0 -97 32 -138.5t109 -51.5l-28 -146q-297 22 -297 315v442q0 120 -44.5 184t-126.5 64h-63z" />
<glyph unicode="|" horiz-adv-x="485" d="M161 -322v2053h164v-2053h-164z" />
<glyph unicode="}" horiz-adv-x="685" d="M89 -212q76 10 108 51.5t32 138.5v435q0 114 39 191t115 103v24q-154 56 -154 302v428q0 100 -31 139.5t-109 51.5l27 149q151 -15 224 -95t73 -225v-435q0 -122 44.5 -185t126.5 -63h63v-151h-63q-81 0 -126 -64t-45 -184v-442q0 -293 -297 -315z" />
<glyph unicode="~" horiz-adv-x="1211" d="M156 774q5 4 13 10.5t34.5 23t55.5 29t73 23t89 10.5q48 0 96.5 -13t82.5 -28t84.5 -28t103.5 -13t105 16t78 31l27 16l60 -106q-4 -4 -12 -10t-35 -23t-56 -29.5t-73.5 -23t-90.5 -10.5q-49 0 -97 13t-82 28t-85 28t-104 13q-51 0 -103.5 -16t-78.5 -31l-27 -16z" />
<glyph unicode="&#xa1;" horiz-adv-x="493" d="M125 959q0 53 36 90t86.5 37t86.5 -37t36 -90q0 -50 -36 -86.5t-86.5 -36.5t-86.5 36.5t-36 86.5zM137 -445l47 1090h124l45 -1090h-216z" />
<glyph unicode="&#xa2;" horiz-adv-x="1077" d="M108 748q0 157 65.5 282.5t182 197t264.5 77.5l27 207h129l-28 -214q63 -10 117.5 -31.5t77.5 -38.5l24 -16l-53 -131q-8 6 -23 15.5t-63 28.5t-100 26l-106 -808h32q45 0 88 8t72.5 19.5t53 23t35.5 19.5l11 8l48 -131q-5 -4 -13.5 -10t-38.5 -22t-63.5 -28.5 t-88.5 -22.5t-113 -10h-44l-24 -197h-128l27 219q-167 50 -267.5 191t-100.5 338zM284 748q0 -134 58 -231t154 -142l103 779q-135 -19 -225 -129.5t-90 -276.5z" />
<glyph unicode="&#xa3;" horiz-adv-x="1245" d="M106 668v140h120q-32 122 -32 238q0 75 21.5 145t66 131.5t107 107.5t151.5 72.5t193 26.5q59 0 114 -8.5t95 -22.5t74.5 -30.5t57.5 -33.5t39 -30.5t24 -22.5l7 -8l-106 -131q-4 5 -12 13t-36.5 28.5t-61 36t-85.5 28t-110 12.5q-87 0 -154.5 -26.5t-108.5 -72 t-62 -103.5t-21 -125q0 -100 31 -225h549v-140h-506q2 -7 9.5 -34t9.5 -35.5t8 -31t8 -34t5.5 -29.5t4.5 -32.5t1 -28.5q0 -165 -96 -279h697v-164h-937v164h2l-2 2q6 2 16 7t35.5 26.5t45.5 49t36 78t16 111.5q0 39 -13 91.5t-40 138.5h-161z" />
<glyph unicode="&#xa5;" horiz-adv-x="1442" d="M77 1512h207l394 -676l45 -96h5l48 96l388 676h204l-474 -794h337v-141h-420v-219h420v-142h-420v-216h-176v216h-423v142h423v219h-423v141h340z" />
<glyph unicode="&#xa6;" horiz-adv-x="507" d="M173 -385v863h162v-863h-162zM173 831v864h162v-864h-162z" />
<glyph unicode="&#xa7;" horiz-adv-x="1284" d="M98 113l99 144q7 -5 20 -13.5t57.5 -29.5t93 -37t122.5 -29.5t150 -13.5q177 0 260 41t83 112q0 80 -66.5 118.5t-275.5 103.5q-11 4 -16 5q-193 56 -290.5 126.5t-97.5 173.5t90 155q-193 99 -193 252q0 71 32.5 129t96 101.5t165 68t233.5 24.5q96 0 181.5 -12t139 -29 t93.5 -34t57 -29l17 -12l-99 -146q-5 4 -15 11t-46.5 24.5t-78 31.5t-109 25t-140.5 11q-166 0 -246 -41t-80 -115q0 -32 13 -57.5t36 -44.5t62.5 -37.5t83 -32.5t107.5 -31q98 -27 176 -58t139 -70.5t94 -87.5t33 -103q0 -59 -25.5 -101.5t-58.5 -66.5q189 -103 189 -252 q0 -51 -19 -97.5t-61 -87.5t-104 -70.5t-153 -47t-202 -17.5q-103 0 -197.5 15t-155 36.5t-106.5 43t-67 36.5zM411 822q0 -47 65.5 -86.5t211.5 -81.5q81 -24 161 -53q18 14 34 39t16 60q0 53 -78.5 96t-243.5 88q-94 25 -108 30q-58 -26 -58 -92z" />
<glyph unicode="&#xa8;" horiz-adv-x="1145" d="M247 1801q0 47 35.5 83t80.5 36t80 -36t35 -83t-35 -82.5t-80.5 -35.5t-80.5 35.5t-35 82.5zM654 1801q0 47 35 83t82 36q46 0 81 -36t35 -83t-35 -82.5t-81 -35.5q-47 0 -82 35.5t-35 82.5z" />
<glyph unicode="&#xa9;" horiz-adv-x="1735" d="M113 753q0 126 33.5 242t98.5 212t155.5 167t211 110.5t258.5 39.5t258.5 -39.5t210 -110.5t154 -167t97 -212t32.5 -242t-32.5 -241.5t-97 -211t-154 -166t-210 -110t-258.5 -39.5t-258.5 39.5t-211 110t-155.5 166t-98.5 211t-33.5 241.5zM226 753q0 -136 45 -256.5 t126 -210.5t203.5 -142.5t269 -52.5t269 52.5t204 142.5t126.5 210.5t45 256.5q0 138 -45 259t-126.5 211.5t-204 142.5t-269 52t-269 -52t-203.5 -142.5t-126 -211.5t-45 -259zM486 755q0 114 46 205.5t137 146t213 54.5q50 0 95 -9.5t73 -23.5t49.5 -27.5t30.5 -23.5l9 -9 l-64 -95l-8 8t-23.5 17.5t-38.5 22t-52 17.5t-66 8q-126 0 -200 -82.5t-74 -208.5q0 -124 74.5 -205t199.5 -81q34 0 65.5 7.5t53 18t38 21t23.5 18.5l8 7l64 -96l-9.5 -9.5t-29.5 -22.5t-50.5 -28t-72.5 -22t-95 -10q-122 0 -213 54t-137 144.5t-46 203.5z" />
<glyph unicode="&#xaa;" horiz-adv-x="1007" d="M98 937q0 121 92.5 190.5t249.5 69.5q191 0 265 -79v36q0 69 -9 114.5t-33.5 82t-71 53.5t-117.5 17q-35 0 -70.5 -5.5t-64.5 -14t-50.5 -16t-39 -15t-18.5 -7.5l-44 118q17 7 47 18t112.5 29t152.5 18q82 0 143.5 -18.5t101.5 -51.5t64.5 -83t35 -109t10.5 -135v-459 h-109l-22 96h-7q-11 -19 -29.5 -36.5t-52 -37t-89.5 -31t-127 -11.5q-140 0 -230 75t-90 192zM242 937.5q0 -73.5 58 -116t156 -42.5q110 0 179.5 47.5t69.5 113.5q0 69 -65.5 110t-170.5 41q-108 0 -167.5 -40t-59.5 -113.5z" />
<glyph unicode="&#xab;" horiz-adv-x="1137" d="M106 496v59l302 473h152v-26l-296 -468v-12l296 -476v-26h-152zM577 496v59l302 473h149v-26l-295 -468v-12l295 -476v-26h-149z" />
<glyph unicode="&#xac;" horiz-adv-x="1370" d="M121 726v146h1086v-872h-149v726h-937z" />
<glyph unicode="&#xad;" horiz-adv-x="1002" d="M149 504v145h705v-145h-705z" />
<glyph unicode="&#xae;" horiz-adv-x="1384" d="M123 957q0 120 39 226.5t110.5 186.5t179.5 127t238 47q131 0 240 -47t181 -127t111.5 -186.5t39.5 -226.5t-39.5 -226.5t-111.5 -186.5t-181 -127t-240 -47q-130 0 -238 47t-179.5 127.5t-110.5 187t-39 225.5zM237 957q0 -134 56 -243t160 -172.5t237 -63.5 q136 0 241 63t161.5 171.5t56.5 244t-56.5 244.5t-161.5 171.5t-241 62.5q-134 0 -237 -60.5t-159.5 -169t-56.5 -248.5zM481 713v508h230q96 0 153.5 -48.5t57.5 -129.5q0 -53 -27.5 -93.5t-75.5 -62.5l108 -151v-23h-93l-111 154h-151v-154h-91zM572 952h135q54 0 87 23.5 t33 67.5q0 91 -116 91h-139v-182z" />
<glyph unicode="&#xaf;" horiz-adv-x="1324" d="M305 1683v115h743v-115h-743z" />
<glyph unicode="&#xb0;" horiz-adv-x="755" d="M96 1421q0 115 78.5 193t203 78t204 -78t79.5 -193t-79.5 -192.5t-204 -77.5t-203 77t-78.5 193zM204 1421q0 -72 48 -120.5t125.5 -48.5t126 48.5t48.5 120.5q0 73 -48.5 123t-126 50t-125.5 -50t-48 -123z" />
<glyph unicode="&#xb1;" horiz-adv-x="1322" d="M159 101v146h1005v-146h-1005zM159 859v146h433v444h148v-444h424v-146h-424v-433h-148v433h-433z" />
<glyph unicode="&#xb2;" horiz-adv-x="873" d="M134 861v112l359 309q91 78 91 162q0 148 -166 148q-33 0 -67.5 -9.5t-59 -21.5t-47 -27t-32 -23t-13.5 -12l-65 95q5 5 13.5 12.5t37 26.5t59.5 33.5t79 26.5t98 12q77 0 135.5 -20.5t92.5 -56.5t50.5 -81.5t16.5 -100.5q0 -72 -26 -127t-91 -107l-284 -239h421v-112 h-602z" />
<glyph unicode="&#xb3;" horiz-adv-x="846" d="M106 957l70 93q4 -4 11 -10.5t31 -23.5t50 -30t65 -23.5t78 -10.5q96 0 147.5 46t51.5 115q0 67 -45 106t-127 41h-92v81l180 231h-389v111h563v-84l-188 -244q111 -12 168.5 -75t57.5 -169q0 -56 -20.5 -104t-59.5 -85.5t-102 -59t-143 -21.5q-51 0 -100.5 11.5 t-83 26.5t-63.5 33.5t-42 28.5t-18 16z" />
<glyph unicode="&#xb4;" horiz-adv-x="702" d="M156 1252l134 365l212 -33l-220 -332h-126z" />
<glyph unicode="&#xb5;" horiz-adv-x="1261" d="M154 -322v1380h173v-577q0 -78 17.5 -143t52.5 -114t91.5 -76t128.5 -27q63 0 115.5 19.5t88 50.5t61 71t37.5 80t13 79v637h174v-1058h-111l-31 151h-7q-8 -13 -21 -30t-45 -44.5t-71 -48.5t-102.5 -37t-135.5 -16q-157 0 -260 80l3 -377h-171z" />
<glyph unicode="&#xb6;" horiz-adv-x="1312" d="M81 922q0 144 52.5 257t147 186t224 111t286.5 38h346v-1721h-178v515h-161q-124 0 -232 24t-197.5 74.5t-153.5 123t-99 172.5t-35 220z" />
<glyph unicode="&#xb7;" horiz-adv-x="520" d="M139 904q0 52 35.5 89.5t85.5 37.5q52 0 87.5 -37t35.5 -90q0 -51 -35.5 -87t-87.5 -36q-50 0 -85.5 36.5t-35.5 86.5z" />
<glyph unicode="&#xb8;" horiz-adv-x="517" d="M63 -346l48 72q5 -6 16 -14.5t45 -22.5t70 -14q50 0 78 23t28 65q0 38 -28.5 59.5t-77.5 21.5l-50 -3l-33 41l60 125h98l-38 -84q70 -2 115.5 -44.5t45.5 -118.5q0 -79 -51.5 -127.5t-143.5 -48.5q-35 0 -66.5 7.5t-51.5 17.5t-35.5 20.5t-21.5 17.5z" />
<glyph unicode="&#xb9;" horiz-adv-x="522" d="M63 1572v111h300v-822h-126v711h-174z" />
<glyph unicode="&#xba;" horiz-adv-x="1031" d="M101 1106q0 99 31 181.5t86.5 138.5t132 87t166.5 31t166.5 -31t131.5 -87t86 -138.5t31 -181.5q0 -193 -116 -310.5t-299 -117.5q-90 0 -166.5 30.5t-131.5 85.5t-86.5 135.5t-31.5 176.5zM247 1108q0 -135 74.5 -218.5t195.5 -83.5q122 0 196.5 83t74.5 219 q0 140 -74 224t-197 84q-122 0 -196 -84t-74 -224z" />
<glyph unicode="&#xbb;" horiz-adv-x="1135" d="M108 20v26l298 476v12l-298 468v26h154l303 -473v-59l-303 -476h-154zM577 20v26l298 476v12l-298 468v26h154l302 -473v-59l-302 -476h-154z" />
<glyph unicode="&#xbc;" horiz-adv-x="1563" d="M84 0l1171 1512h156l-1177 -1512h-150zM101 1401v111h302v-822h-126v711h-176zM784 221v79l447 522h94v-495h151v-106h-151v-221h-121v221h-420zM935 320l118 7h151v303h-2l-187 -224q-45 -51 -80 -86z" />
<glyph unicode="&#xbd;" horiz-adv-x="1719" d="M84 0l1171 1512h156l-1177 -1512h-150zM108 1401v111h300v-822h-126v711h-174zM1026 0h601v111h-420l284 240q64 53 90.5 107t26.5 126q0 55 -16.5 100.5t-50.5 82t-92.5 57t-136.5 20.5q-49 0 -96.5 -11.5t-80.5 -28t-58.5 -32.5t-38.5 -28l-12 -11l65 -96q4 4 13.5 12 t32 23t47 27.5t59 22t67.5 9.5q166 0 166 -149q0 -83 -91 -161l-359 -310v-111z" />
<glyph unicode="&#xbe;" horiz-adv-x="1785" d="M91 786l70 93q4 -4 11.5 -10.5t31.5 -23.5t49.5 -30t64.5 -23.5t78 -10.5q96 0 147 46t51 115q0 67 -44.5 106t-126.5 41h-93v79l182 233h-391v111h564v-84l-189 -244q111 -12 169 -75t58 -169q0 -56 -20 -104t-59.5 -85.5t-102.5 -59t-142 -21.5q-51 0 -101 11.5 t-83.5 26.5t-63 33.5t-42 28.5t-18.5 16zM315 0l1171 1512h156l-1176 -1512h-151zM1005 221v79l449 522h92v-495h151v-106h-151v-221h-120v221h-421zM1156 320l118 7h152v303h-3l-186 -224q-35 -41 -81 -86z" />
<glyph unicode="&#xbf;" horiz-adv-x="1031" d="M84 -77q0 74 22 137.5t57.5 109.5t78.5 86.5t86.5 77t80.5 72.5t62 82t28 96l5 68h123v-97q0 -57 -20 -109.5t-52 -94t-70.5 -80.5t-77.5 -76.5t-71 -75.5t-52 -84t-20 -95q0 -109 83.5 -177t221.5 -68q56 0 110.5 11.5t92 28.5t67 33.5t43.5 27.5l15 12l72 -145 q-6 -5 -17.5 -14.5t-50.5 -32.5t-82 -40.5t-111 -32t-139 -14.5q-224 0 -354.5 105.5t-130.5 288.5zM435 967q0 52 37 89t88 37q50 0 85 -36.5t35 -89.5q0 -51 -35 -87t-85 -36q-51 0 -88 36t-37 87z" />
<glyph unicode="&#xc0;" d="M22 0l648 1512h159l647 -1512h-181l-144 335h-805l-142 -335h-182zM416 499h668l-334 785zM464 1932l211 32l133 -365h-125z" />
<glyph unicode="&#xc1;" d="M22 0l648 1512h159l647 -1512h-181l-144 335h-805l-142 -335h-182zM416 499h668l-334 785zM690 1599l134 365l212 -32l-219 -333h-127z" />
<glyph unicode="&#xc2;" d="M22 0l648 1512h159l647 -1512h-181l-144 335h-805l-142 -335h-182zM416 499h668l-334 785zM451 1683l224 271h144l229 -271h-164l-134 153l-137 -153h-162z" />
<glyph unicode="&#xc3;" d="M22 0l648 1512h159l647 -1512h-181l-144 335h-805l-142 -335h-182zM330 1695l13 66q43 209 219 209q42 0 84.5 -15.5t77.5 -37.5t68.5 -44.5t68.5 -38t66 -15.5q56 0 82 30t37 83l7 38l123 -13l-10 -63q-8 -44 -23.5 -80t-41 -66.5t-65 -47.5t-89.5 -17q-43 0 -87 15 t-79.5 37t-69 44t-68 37t-64.5 15q-27 0 -47.5 -8t-33 -25.5t-20 -34t-14.5 -42.5l-10 -41zM416 499h668l-334 785z" />
<glyph unicode="&#xc4;" d="M22 0l648 1512h159l647 -1512h-181l-144 335h-805l-142 -335h-182zM416 499h668l-334 785zM428 1801q0 47 35 83t80.5 36t81.5 -36t36 -83t-36 -82.5t-81.5 -35.5t-80.5 35.5t-35 82.5zM836 1800.5q0 47.5 34.5 83.5t81.5 36q45 0 80.5 -36t35.5 -83t-35.5 -82.5 t-80.5 -35.5q-47 0 -81.5 35t-34.5 82.5z" />
<glyph unicode="&#xc5;" d="M22 0l648 1512h159l647 -1512h-181l-144 335h-805l-142 -335h-182zM416 499h668l-334 785zM488 1769q0 97 74 158t188 61q111 0 184 -61t73 -158t-73 -158t-184 -61q-114 0 -188 61t-74 158zM608 1769q0 -52 37.5 -80.5t104.5 -28.5q66 0 102.5 28.5t36.5 80.5t-36.5 80 t-102.5 28q-67 0 -104.5 -28t-37.5 -80z" />
<glyph unicode="&#xc6;" horiz-adv-x="2211" d="M-12 0l1038 1512h1082v-164h-884v-502h756v-163h-756v-519h884v-164h-1060v335h-620l-224 -335h-216zM536 499h512v736h-17z" />
<glyph unicode="&#xc7;" horiz-adv-x="1423" d="M103 753q0 165 55 311t152.5 251.5t239 167t306.5 61.5q69 0 134.5 -11t114 -28t91.5 -37.5t72 -41t50 -37.5t30 -28l10 -10l-101 -137q-6 7 -17.5 18t-51 39t-83 49.5t-110.5 39.5t-136 18q-125 0 -233 -50t-182.5 -134t-117 -199t-42.5 -242t42.5 -241t117 -198 t182.5 -134t233 -50q69 0 135.5 17t112 41.5t81 48.5t52.5 41l17 17l101 -136q-7 -8 -20 -21t-59 -46.5t-99.5 -59.5t-141 -47t-182.5 -21h-5l-17 -41q70 -2 115.5 -44.5t45.5 -118.5q0 -79 -52 -127.5t-145 -48.5q-34 0 -65.5 7.5t-51.5 17.5t-35 20.5t-22 17.5l-7 7l48 72 q6 -6 16.5 -14.5t44.5 -22.5t70 -14q49 0 77.5 23t28.5 65q0 38 -29 59.5t-77 21.5l-51 -3l-32 41l42 90q-145 16 -267 83.5t-206.5 170.5t-131.5 239t-47 288z" />
<glyph unicode="&#xc8;" horiz-adv-x="1370" d="M207 0v1512h1060v-164h-884v-502h756v-163h-756v-519h884v-164h-1060zM478 1932l212 32l134 -365h-127z" />
<glyph unicode="&#xc9;" horiz-adv-x="1370" d="M207 0v1512h1060v-164h-884v-502h756v-163h-756v-519h884v-164h-1060zM670 1599l133 365l212 -32l-219 -333h-126z" />
<glyph unicode="&#xca;" horiz-adv-x="1370" d="M207 0v1512h1060v-164h-884v-502h756v-163h-756v-519h884v-164h-1060zM456 1683l224 271h144l229 -271h-164l-134 153l-138 -153h-161z" />
<glyph unicode="&#xcb;" horiz-adv-x="1370" d="M207 0v1512h1060v-164h-884v-502h756v-163h-756v-519h884v-164h-1060zM421 1801q0 47 35 83t80.5 36t80.5 -36t35 -83t-35 -82.5t-80.5 -35.5t-80.5 35.5t-35 82.5zM829 1800.5q0 47.5 34.5 83.5t81.5 36q45 0 80 -36t35 -83t-35 -82.5t-80 -35.5q-47 0 -81.5 35 t-34.5 82.5z" />
<glyph unicode="&#xcc;" horiz-adv-x="589" d="M7 1932l212 32l134 -365h-127zM207 0v1512h176v-1512h-176z" />
<glyph unicode="&#xcd;" horiz-adv-x="589" d="M207 0v1512h176v-1512h-176zM234 1599l134 365l211 -32l-219 -333h-126z" />
<glyph unicode="&#xce;" horiz-adv-x="589" d="M0 1683l224 271h144l229 -271h-164l-133 153l-139 -153h-161zM207 0v1512h176v-1512h-176z" />
<glyph unicode="&#xcf;" horiz-adv-x="589" d="M-25 1801q0 47 35.5 83t80.5 36t80.5 -36t35.5 -83t-35.5 -82.5t-80.5 -35.5t-80.5 35.5t-35.5 82.5zM207 0v1512h176v-1512h-176zM383 1801q0 47 35 83t81 36t81 -36t35 -83t-35 -82.5t-81 -35.5q-47 0 -81.5 35.5t-34.5 82.5z" />
<glyph unicode="&#xd0;" horiz-adv-x="1589" d="M60 685v161h149v666h504q171 0 313.5 -53.5t243 -151t156 -239t55.5 -313t-55.5 -313.5t-156 -239t-243 -150t-313.5 -53h-504v685h-149zM385 164h317q128 0 237.5 40.5t190 115t127 186.5t46.5 249t-46.5 249.5t-127 187.5t-190 115.5t-237.5 40.5h-317v-502h449v-161 h-449v-521z" />
<glyph unicode="&#xd1;" horiz-adv-x="1674" d="M207 0v1512h128l958 -1195v1195h176v-1512h-126l-960 1199v-1199h-176zM421 1697l12 67q43 209 219 209q42 0 84.5 -15.5t77.5 -38t68.5 -44.5t68.5 -37.5t66 -15.5q56 0 82.5 30t37.5 83l7 38l123 -14l-10 -62q-8 -44 -23.5 -80.5t-41 -67t-65 -47.5t-89.5 -17 q-43 0 -87 15.5t-79.5 37.5t-69 43.5t-68 37t-64.5 15.5q-27 0 -47.5 -8.5t-33 -26t-19.5 -34t-15 -42.5l-11 -40z" />
<glyph unicode="&#xd2;" horiz-adv-x="1704" d="M106 753q0 166 53 311t148.5 251t236 167.5t307.5 61.5q169 0 310 -61t236.5 -167.5t148.5 -251.5t53 -311q0 -132 -33.5 -251.5t-98 -217t-154.5 -169.5t-208.5 -111.5t-253.5 -39.5q-166 0 -307 61.5t-236.5 167.5t-148.5 250.5t-53 309.5zM287 753q0 -127 39.5 -240 t111 -197t179 -133t234.5 -49q129 0 237 49t180 133t112.5 197t40.5 240q0 128 -40.5 242t-112.5 199t-180 134.5t-237 49.5q-127 0 -234 -49.5t-179 -134.5t-111.5 -199t-39.5 -242zM577 2015l211 33l134 -365h-126z" />
<glyph unicode="&#xd3;" horiz-adv-x="1704" d="M106 753q0 166 53 311t148.5 251t236 167.5t307.5 61.5q169 0 310 -61t236.5 -167.5t148.5 -251.5t53 -311q0 -132 -33.5 -251.5t-98 -217t-154.5 -169.5t-208.5 -111.5t-253.5 -39.5q-166 0 -307 61.5t-236.5 167.5t-148.5 250.5t-53 309.5zM287 753q0 -127 39.5 -240 t111 -197t179 -133t234.5 -49q129 0 237 49t180 133t112.5 197t40.5 240q0 128 -40.5 242t-112.5 199t-180 134.5t-237 49.5q-127 0 -234 -49.5t-179 -134.5t-111.5 -199t-39.5 -242zM781 1683l133 365l211 -33l-218 -332h-126z" />
<glyph unicode="&#xd4;" horiz-adv-x="1704" d="M106 753q0 166 53 311t148.5 251t236 167.5t307.5 61.5q169 0 310 -61t236.5 -167.5t148.5 -251.5t53 -311q0 -132 -33.5 -251.5t-98 -217t-154.5 -169.5t-208.5 -111.5t-253.5 -39.5q-166 0 -307 61.5t-236.5 167.5t-148.5 250.5t-53 309.5zM287 753q0 -127 39.5 -240 t111 -197t179 -133t234.5 -49q129 0 237 49t180 133t112.5 197t40.5 240q0 128 -40.5 242t-112.5 199t-180 134.5t-237 49.5q-127 0 -234 -49.5t-179 -134.5t-111.5 -199t-39.5 -242zM557 1683l224 271h144l229 -271h-164l-134 153l-138 -153h-161z" />
<glyph unicode="&#xd5;" horiz-adv-x="1704" d="M106 753q0 166 53 311t148.5 251t236 167.5t307.5 61.5q169 0 310 -61t236.5 -167.5t148.5 -251.5t53 -311q0 -132 -33.5 -251.5t-98 -217t-154.5 -169.5t-208.5 -111.5t-253.5 -39.5q-166 0 -307 61.5t-236.5 167.5t-148.5 250.5t-53 309.5zM287 753q0 -127 39.5 -240 t111 -197t179 -133t234.5 -49q129 0 237 49t180 133t112.5 197t40.5 240q0 128 -40.5 242t-112.5 199t-180 134.5t-237 49.5q-127 0 -234 -49.5t-179 -134.5t-111.5 -199t-39.5 -242zM426 1695l12 66q43 209 220 209q42 0 84.5 -15.5t77.5 -37.5t68 -44.5t68 -38t66 -15.5 q56 0 82.5 30.5t36.5 82.5l8 38l123 -13l-10 -63q-8 -44 -23.5 -80t-41 -66.5t-65 -47.5t-89.5 -17q-43 0 -87 15t-79.5 37t-69 44t-68 37t-64.5 15q-28 0 -48 -8t-32.5 -25.5t-20 -34t-14.5 -42.5l-11 -41z" />
<glyph unicode="&#xd6;" horiz-adv-x="1704" d="M106 753q0 166 53 311t148.5 251t236 167.5t307.5 61.5q169 0 310 -61t236.5 -167.5t148.5 -251.5t53 -311q0 -132 -33.5 -251.5t-98 -217t-154.5 -169.5t-208.5 -111.5t-253.5 -39.5q-166 0 -307 61.5t-236.5 167.5t-148.5 250.5t-53 309.5zM287 753q0 -127 39.5 -240 t111 -197t179 -133t234.5 -49q129 0 237 49t180 133t112.5 197t40.5 240q0 128 -40.5 242t-112.5 199t-180 134.5t-237 49.5q-127 0 -234 -49.5t-179 -134.5t-111.5 -199t-39.5 -242zM531 1801q0 47 35.5 83t80.5 36t81 -36t36 -83t-36 -82.5t-81 -35.5t-80.5 35.5 t-35.5 82.5zM940 1800.5q0 47.5 34.5 83.5t80.5 36t81 -36t35 -83t-35 -82.5t-81 -35.5t-80.5 35t-34.5 82.5z" />
<glyph unicode="&#xd7;" horiz-adv-x="1243" d="M146 358l378 395l-378 398l104 101l375 -396l375 396l101 -101l-378 -398l378 -395l-101 -101l-375 392l-375 -392z" />
<glyph unicode="&#xd8;" horiz-adv-x="1714" d="M17 0l247 252q-153 208 -153 501q0 166 53 311t148.5 251t236 167.5t307.5 61.5q146 0 272 -47t223 -132l140 147h194l-241 -248q78 -103 119.5 -234t41.5 -277q0 -132 -33.5 -251.5t-98.5 -217t-155 -169.5t-208.5 -111.5t-253.5 -39.5q-148 0 -275 48t-223 137 l-144 -149h-197zM293 753q0 -213 99 -370l834 857q-153 138 -370 138q-127 0 -234 -49.5t-178.5 -134.5t-111 -199t-39.5 -242zM481 274q152 -140 375 -140q128 0 236 49t180.5 133t113 197t40.5 240q0 212 -109 381z" />
<glyph unicode="&#xd9;" horiz-adv-x="1586" d="M187 632v880h176v-880q0 -110 27.5 -201t80 -158.5t135 -105t187.5 -37.5q107 0 190 37.5t135 105t79 158.5t27 201v880h177v-880q0 -148 -41 -271t-117.5 -211t-191.5 -137t-258 -49q-188 0 -326 84.5t-209 235t-71 348.5zM512 1932l211 32l133 -365h-125z" />
<glyph unicode="&#xda;" horiz-adv-x="1586" d="M187 632v880h176v-880q0 -110 27.5 -201t80 -158.5t135 -105t187.5 -37.5q107 0 190 37.5t135 105t79 158.5t27 201v880h177v-880q0 -148 -41 -271t-117.5 -211t-191.5 -137t-258 -49q-188 0 -326 84.5t-209 235t-71 348.5zM723 1599l133 365l212 -32l-219 -333h-126z " />
<glyph unicode="&#xdb;" horiz-adv-x="1586" d="M187 632v880h176v-880q0 -110 27.5 -201t80 -158.5t135 -105t187.5 -37.5q107 0 190 37.5t135 105t79 158.5t27 201v880h177v-880q0 -148 -41 -271t-117.5 -211t-191.5 -137t-258 -49q-188 0 -326 84.5t-209 235t-71 348.5zM499 1597l224 273h144l229 -273h-164l-134 153 l-137 -153h-162z" />
<glyph unicode="&#xdc;" horiz-adv-x="1586" d="M187 632v880h176v-880q0 -110 27.5 -201t80 -158.5t135 -105t187.5 -37.5q107 0 190 37.5t135 105t79 158.5t27 201v880h177v-880q0 -148 -41 -271t-117.5 -211t-191.5 -137t-258 -49q-188 0 -326 84.5t-209 235t-71 348.5zM476 1801q0 47 35 83t80.5 36t80.5 -36t35 -83 t-35 -82.5t-80.5 -35.5t-80.5 35.5t-35 82.5zM884 1800.5q0 47.5 34.5 83.5t81.5 36q45 0 80.5 -36t35.5 -83t-35.5 -82.5t-80.5 -35.5q-47 0 -81.5 35t-34.5 82.5z" />
<glyph unicode="&#xdd;" horiz-adv-x="1334" d="M22 1512h207l393 -676l46 -96h5l48 96l387 676h204l-557 -933v-579h-176v579zM601 1683l135 365l211 -33l-219 -332h-127z" />
<glyph unicode="&#xde;" horiz-adv-x="1447" d="M207 0v1512h176v-248h418q271 0 422.5 -130.5t151.5 -373.5q0 -169 -72 -287.5t-202.5 -177t-309.5 -58.5h-408v-237h-176zM383 403h413q398 0 398 352q0 171 -105.5 257t-292.5 86h-413v-695z" />
<glyph unicode="&#xdf;" horiz-adv-x="1253" d="M169 0v1026q0 249 120.5 377t350.5 128q196 0 312 -112.5t116 -297.5q0 -107 -49.5 -191t-136.5 -129q89 -25 152.5 -85.5t92.5 -136.5t29 -161q0 -207 -130 -325t-368 -118q-51 0 -98 6.5t-68 12.5l-21 6l22 137q56 -16 159 -16q143 0 232 80.5t89 209.5 q0 140 -88.5 218t-232.5 78h-55v127q282 42 282 295q0 109 -69 179t-188 70q-122 0 -200.5 -83.5t-78.5 -236.5v-1058h-174z" />
<glyph unicode="&#xe0;" horiz-adv-x="1161" d="M77 312q0 156 126.5 251t358.5 95q148 0 274 -43v37q0 278 -302 278q-47 0 -95.5 -9t-83.5 -21.5t-63.5 -25t-43.5 -21.5l-14 -9l-68 144q6 4 18 10.5t50.5 23t80 29t105 23t126.5 10.5q120 0 208.5 -31t142 -88.5t79.5 -135.5t26 -177v-652h-120l-21 146h-12 q-53 -79 -146 -125t-217 -46q-96 0 -174 26.5t-129 72.5t-78.5 107t-27.5 131zM255 317q0 -89 66.5 -146.5t187.5 -57.5q70 0 132 23.5t104.5 63t66.5 92t24 109.5v75q-114 53 -259 53q-165 0 -243.5 -55t-78.5 -157zM300 1584l212 33l133 -365h-126z" />
<glyph unicode="&#xe1;" horiz-adv-x="1161" d="M77 312q0 156 126.5 251t358.5 95q148 0 274 -43v37q0 278 -302 278q-47 0 -95.5 -9t-83.5 -21.5t-63.5 -25t-43.5 -21.5l-14 -9l-68 144q6 4 18 10.5t50.5 23t80 29t105 23t126.5 10.5q120 0 208.5 -31t142 -88.5t79.5 -135.5t26 -177v-652h-120l-21 146h-12 q-53 -79 -146 -125t-217 -46q-96 0 -174 26.5t-129 72.5t-78.5 107t-27.5 131zM255 317q0 -89 66.5 -146.5t187.5 -57.5q70 0 132 23.5t104.5 63t66.5 92t24 109.5v75q-114 53 -259 53q-165 0 -243.5 -55t-78.5 -157zM531 1252l134 365l212 -33l-219 -332h-127z" />
<glyph unicode="&#xe2;" horiz-adv-x="1161" d="M77 312q0 156 126.5 251t358.5 95q148 0 274 -43v37q0 278 -302 278q-47 0 -95.5 -9t-83.5 -21.5t-63.5 -25t-43.5 -21.5l-14 -9l-68 144q6 4 18 10.5t50.5 23t80 29t105 23t126.5 10.5q120 0 208.5 -31t142 -88.5t79.5 -135.5t26 -177v-652h-120l-21 146h-12 q-53 -79 -146 -125t-217 -46q-96 0 -174 26.5t-129 72.5t-78.5 107t-27.5 131zM255 317q0 -89 66.5 -146.5t187.5 -57.5q70 0 132 23.5t104.5 63t66.5 92t24 109.5v75q-114 53 -259 53q-165 0 -243.5 -55t-78.5 -157zM264 1252l224 272h144l229 -272h-164l-132 154 l-139 -154h-162z" />
<glyph unicode="&#xe3;" horiz-adv-x="1161" d="M77 312q0 156 126.5 251t358.5 95q148 0 274 -43v37q0 278 -302 278q-47 0 -95.5 -9t-83.5 -21.5t-63.5 -25t-43.5 -21.5l-14 -9l-68 144q6 4 18 10.5t50.5 23t80 29t105 23t126.5 10.5q120 0 208.5 -31t142 -88.5t79.5 -135.5t26 -177v-652h-120l-21 146h-12 q-53 -79 -146 -125t-217 -46q-96 0 -174 26.5t-129 72.5t-78.5 107t-27.5 131zM137 1269l12 66q43 209 219 209q42 0 84.5 -15.5t77.5 -37.5t68.5 -44t68.5 -37.5t66 -15.5q56 0 81.5 30t36.5 83l8 37l124 -13l-10 -62q-8 -44 -23.5 -80.5t-41.5 -67t-65.5 -47.5t-89.5 -17 q-43 0 -87 15.5t-79.5 37t-69 43.5t-68 37.5t-64.5 15.5q-28 0 -48 -8.5t-33 -26t-20 -34t-15 -42.5l-9 -40zM255 317q0 -89 66.5 -146.5t187.5 -57.5q70 0 132 23.5t104.5 63t66.5 92t24 109.5v75q-114 53 -259 53q-165 0 -243.5 -55t-78.5 -157z" />
<glyph unicode="&#xe4;" horiz-adv-x="1161" d="M77 312q0 156 126.5 251t358.5 95q148 0 274 -43v37q0 278 -302 278q-47 0 -95.5 -9t-83.5 -21.5t-63.5 -25t-43.5 -21.5l-14 -9l-68 144q6 4 18 10.5t50.5 23t80 29t105 23t126.5 10.5q120 0 208.5 -31t142 -88.5t79.5 -135.5t26 -177v-652h-120l-21 146h-12 q-53 -79 -146 -125t-217 -46q-96 0 -174 26.5t-129 72.5t-78.5 107t-27.5 131zM247 1370q0 47 35 82.5t80.5 35.5t80.5 -35.5t35 -82.5t-35 -82.5t-80.5 -35.5t-80.5 35.5t-35 82.5zM255 317q0 -89 66.5 -146.5t187.5 -57.5q70 0 132 23.5t104.5 63t66.5 92t24 109.5v75 q-114 53 -259 53q-165 0 -243.5 -55t-78.5 -157zM654 1370q0 47 35 82.5t82 35.5q46 0 81 -35.5t35 -82.5t-35 -82.5t-81 -35.5q-47 0 -82 35.5t-35 82.5z" />
<glyph unicode="&#xe5;" horiz-adv-x="1161" d="M77 312q0 156 126.5 251t358.5 95q148 0 274 -43v37q0 278 -302 278q-47 0 -95.5 -9t-83.5 -21.5t-63.5 -25t-43.5 -21.5l-14 -9l-68 144q6 4 18 10.5t50.5 23t80 29t105 23t126.5 10.5q120 0 208.5 -31t142 -88.5t79.5 -135.5t26 -177v-652h-120l-21 146h-12 q-53 -79 -146 -125t-217 -46q-96 0 -174 26.5t-129 72.5t-78.5 107t-27.5 131zM255 317q0 -89 66.5 -146.5t187.5 -57.5q70 0 132 23.5t104.5 63t66.5 92t24 109.5v75q-114 53 -259 53q-165 0 -243.5 -55t-78.5 -157zM310 1471q0 97 74 158t188 61q111 0 184 -61t73 -158 t-73 -158t-184 -61q-114 0 -188 61t-74 158zM428 1471q0 -52 38.5 -80t105.5 -28q65 0 102 28t37 80t-37 80t-102 28q-67 0 -105.5 -28t-38.5 -80z" />
<glyph unicode="&#xe6;" horiz-adv-x="1885" d="M77 312q0 157 122 251.5t353 94.5q155 0 284 -45v39q0 278 -302 278q-47 0 -95.5 -9t-83.5 -21.5t-63.5 -25t-43.5 -21.5l-14 -9l-68 144q6 4 18 10.5t50.5 23t80 29t105 23t126.5 10.5q296 0 401 -187q66 88 164.5 137.5t220.5 49.5q112 0 201.5 -41t146.5 -112.5 t87.5 -166.5t30.5 -207v-43h-788q2 -95 31 -170.5t78.5 -124t116 -73.5t144.5 -25q54 0 105 10t85 25t60 30t38 25l12 10l65 -125q-4 -5 -13 -13.5t-42.5 -30t-73 -37.5t-106 -29.5t-140.5 -13.5q-146 0 -258.5 55.5t-181.5 159.5q-61 -100 -168.5 -156t-259.5 -56 q-107 0 -189.5 26.5t-133 72.5t-76.5 106.5t-26 131.5zM255 312q0 -88 64 -143.5t185 -55.5q78 0 142 23.5t105 63t63 91.5t22 110v73q-120 52 -269 52q-312 0 -312 -214zM1020 654h600q-19 139 -92.5 210t-197.5 71q-128 0 -207 -70t-103 -211z" />
<glyph unicode="&#xe7;" horiz-adv-x="1034" d="M101 526q0 163 66 290t185.5 197.5t272.5 70.5q66 0 124 -10t92.5 -23.5t60 -27.5t35.5 -23l10 -10l-53 -131q-4 3 -11.5 8t-33.5 18.5t-54.5 24t-72 19t-87.5 8.5q-75 0 -140 -27.5t-114 -79t-76.5 -130t-27.5 -174.5q0 -97 27.5 -175t76.5 -128t113.5 -76t140.5 -26 q44 0 87 8t73 19.5t53.5 23t34.5 19.5l11 8l48 -131q-3 -4 -9 -9.5t-29 -19.5t-51.5 -25.5t-77.5 -22t-105 -13.5l-30 -74q70 -2 115.5 -43.5t45.5 -117.5q0 -79 -52 -127.5t-144 -48.5q-34 0 -65.5 7t-52 17.5t-35.5 21t-22 17.5l-7 7l48 70q6 -5 16 -13.5t44 -22.5t70 -14 q50 0 78 23.5t28 64.5q0 39 -28.5 60.5t-77.5 21.5l-49 -3l-33 39l53 115q-212 17 -341.5 166t-129.5 382z" />
<glyph unicode="&#xe8;" horiz-adv-x="1150" d="M101 526q0 160 60 286t173.5 199t262.5 73q111 0 200.5 -41t147 -112.5t88 -166.5t30.5 -207v-43h-789q2 -95 31 -170.5t79 -124t116 -73.5t145 -25q54 0 105 10t84.5 25t60 30t38.5 25l12 10l65 -125q-5 -5 -14 -13.5t-42.5 -30t-72.5 -37.5t-105.5 -29.5t-140.5 -13.5 q-163 0 -284.5 69.5t-185.5 195t-64 289.5zM284 654h600q-18 139 -91.5 210t-198.5 71q-128 0 -206.5 -70t-103.5 -211zM312 1584l212 33l134 -365h-127z" />
<glyph unicode="&#xe9;" horiz-adv-x="1150" d="M101 526q0 160 60 286t173.5 199t262.5 73q111 0 200.5 -41t147 -112.5t88 -166.5t30.5 -207v-43h-789q2 -95 31 -170.5t79 -124t116 -73.5t145 -25q54 0 105 10t84.5 25t60 30t38.5 25l12 10l65 -125q-5 -5 -14 -13.5t-42.5 -30t-72.5 -37.5t-105.5 -29.5t-140.5 -13.5 q-163 0 -284.5 69.5t-185.5 195t-64 289.5zM284 654h600q-18 139 -91.5 210t-198.5 71q-128 0 -206.5 -70t-103.5 -211zM529 1252l134 365l212 -33l-221 -332h-125z" />
<glyph unicode="&#xea;" horiz-adv-x="1150" d="M101 526q0 160 60 286t173.5 199t262.5 73q111 0 200.5 -41t147 -112.5t88 -166.5t30.5 -207v-43h-789q2 -95 31 -170.5t79 -124t116 -73.5t145 -25q54 0 105 10t84.5 25t60 30t38.5 25l12 10l65 -125q-5 -5 -14 -13.5t-42.5 -30t-72.5 -37.5t-105.5 -29.5t-140.5 -13.5 q-163 0 -284.5 69.5t-185.5 195t-64 289.5zM284 654h600q-18 139 -91.5 210t-198.5 71q-128 0 -206.5 -70t-103.5 -211zM295 1250l224 272h144l229 -272h-164l-134 153l-138 -153h-161z" />
<glyph unicode="&#xeb;" horiz-adv-x="1150" d="M101 526q0 160 60 286t173.5 199t262.5 73q111 0 200.5 -41t147 -112.5t88 -166.5t30.5 -207v-43h-789q2 -95 31 -170.5t79 -124t116 -73.5t145 -25q54 0 105 10t84.5 25t60 30t38.5 25l12 10l65 -125q-5 -5 -14 -13.5t-42.5 -30t-72.5 -37.5t-105.5 -29.5t-140.5 -13.5 q-163 0 -284.5 69.5t-185.5 195t-64 289.5zM277 1370q0 47 35 82.5t80.5 35.5t81 -35.5t35.5 -82.5t-35.5 -82.5t-81 -35.5t-80.5 35.5t-35 82.5zM284 654h600q-18 139 -91.5 210t-198.5 71q-128 0 -206.5 -70t-103.5 -211zM685 1370q0 47 34.5 82.5t81.5 35.5 q45 0 80 -35.5t35 -82.5t-35 -82.5t-80 -35.5q-47 0 -81.5 35.5t-34.5 82.5z" />
<glyph unicode="&#xec;" horiz-adv-x="520" d="M-31 1584l212 33l134 -365h-126zM173 0v1058h175v-1058h-175z" />
<glyph unicode="&#xed;" horiz-adv-x="520" d="M173 0v1058h175v-1058h-175zM199 1252l133 365l212 -33l-219 -332h-126z" />
<glyph unicode="&#xee;" horiz-adv-x="520" d="M-36 1335l225 273h143l230 -273h-163l-135 153l-139 -153h-161zM173 0v1058h175v-1058h-175z" />
<glyph unicode="&#xef;" horiz-adv-x="520" d="M-55 1451q0 47 35 82.5t80.5 35.5t80.5 -35.5t35 -82.5t-35 -83t-80.5 -36t-80.5 36t-35 83zM173 0v1058h175v-1058h-175zM353 1451.5q0 47.5 34.5 82.5t81.5 35q45 0 80 -35.5t35 -82.5t-35 -83t-80 -36q-47 0 -81.5 36t-34.5 83.5z" />
<glyph unicode="&#xf0;" horiz-adv-x="1261" d="M101 529q0 165 62.5 290t182.5 195t284 70q58 0 144 -19v14q-34 42 -67 92l-120 189l-305 -189l-61 106l301 184l-217 345v28h164l183 -293l312 192l62 -103l-308 -192l325 -513q66 -109 91 -194t25 -202q0 -167 -62.5 -291.5t-182.5 -193.5t-284 -69t-284 69 t-182.5 193.5t-62.5 291.5zM277 529q0 -97 27 -175t74.5 -128.5t112 -77.5t139.5 -27t139 27t112 77.5t75 128.5t27 175q0 98 -27 176t-75 128.5t-112 77t-139.5 26.5t-139.5 -26.5t-111.5 -77t-74.5 -128.5t-27 -176z" />
<glyph unicode="&#xf1;" horiz-adv-x="1284" d="M169 0v1058h124l15 -156h12q55 89 143.5 135.5t226.5 46.5q136 0 236 -62.5t151.5 -172t51.5 -252.5v-597h-175v577q0 104 -33 184t-102.5 128t-166.5 48q-62 0 -114 -19.5t-86.5 -51t-59 -72t-36 -81t-13.5 -78.5v-635h-174zM216 1348l13 65q43 209 220 209 q42 0 84.5 -15.5t77.5 -37.5t68.5 -44.5t68.5 -38t66 -15.5q56 0 81.5 30t36.5 83l8 38l123 -12l-10 -64q-8 -44 -23.5 -80t-41 -66.5t-65 -47.5t-89.5 -17q-43 0 -87 15t-79.5 37t-69 44t-68 37t-64.5 15q-28 0 -48 -8t-33 -26t-20 -34t-14 -42l-12 -41z" />
<glyph unicode="&#xf2;" horiz-adv-x="1261" d="M98 524q0 124 42 229.5t113.5 177.5t169 112.5t207.5 40.5q109 0 206.5 -40.5t170 -112.5t115 -178t42.5 -229t-42.5 -227t-115 -174t-170 -109t-206.5 -39q-111 0 -208 39t-168.5 109t-113.5 173.5t-42 227.5zM269 526q0 -93 29 -171.5t78.5 -130t115 -80t138.5 -28.5 t138 28.5t114.5 80t78.5 130t29 171.5q0 94 -29 172.5t-78 131.5t-114.5 82.5t-138.5 29.5t-138.5 -29.5t-115 -82.5t-78.5 -131.5t-29 -172.5zM346 1584l211 33l133 -365h-125z" />
<glyph unicode="&#xf3;" horiz-adv-x="1261" d="M98 524q0 124 42 229.5t113.5 177.5t169 112.5t207.5 40.5q109 0 206.5 -40.5t170 -112.5t115 -178t42.5 -229t-42.5 -227t-115 -174t-170 -109t-206.5 -39q-111 0 -208 39t-168.5 109t-113.5 173.5t-42 227.5zM269 526q0 -93 29 -171.5t78.5 -130t115 -80t138.5 -28.5 t138 28.5t114.5 80t78.5 130t29 171.5q0 94 -29 172.5t-78 131.5t-114.5 82.5t-138.5 29.5t-138.5 -29.5t-115 -82.5t-78.5 -131.5t-29 -172.5zM562 1252l133 365l212 -33l-219 -332h-126z" />
<glyph unicode="&#xf4;" horiz-adv-x="1261" d="M98 524q0 124 42 229.5t113.5 177.5t169 112.5t207.5 40.5q109 0 206.5 -40.5t170 -112.5t115 -178t42.5 -229t-42.5 -227t-115 -174t-170 -109t-206.5 -39q-111 0 -208 39t-168.5 109t-113.5 173.5t-42 227.5zM269 526q0 -93 29 -171.5t78.5 -130t115 -80t138.5 -28.5 t138 28.5t114.5 80t78.5 130t29 171.5q0 94 -29 172.5t-78 131.5t-114.5 82.5t-138.5 29.5t-138.5 -29.5t-115 -82.5t-78.5 -131.5t-29 -172.5zM332 1335l225 273h143l230 -273h-164l-134 153l-139 -153h-161z" />
<glyph unicode="&#xf5;" horiz-adv-x="1261" d="M98 524q0 124 42 229.5t113.5 177.5t169 112.5t207.5 40.5q109 0 206.5 -40.5t170 -112.5t115 -178t42.5 -229t-42.5 -227t-115 -174t-170 -109t-206.5 -39q-111 0 -208 39t-168.5 109t-113.5 173.5t-42 227.5zM194 1351l13 65q42 209 219 209q41 0 84 -15.5t78 -38 t68.5 -44.5t68.5 -37.5t66 -15.5q56 0 81.5 30t36.5 83l7 38l125 -12l-10 -63q-8 -44 -24 -80.5t-41.5 -67t-65 -48t-89.5 -17.5q-44 0 -87.5 15.5t-79.5 37t-69.5 43.5t-68 37.5t-63.5 15.5q-28 0 -48 -8.5t-33 -26t-20 -34t-15 -42.5l-10 -40zM269 526q0 -93 29 -171.5 t78.5 -130t115 -80t138.5 -28.5t138 28.5t114.5 80t78.5 130t29 171.5q0 94 -29 172.5t-78 131.5t-114.5 82.5t-138.5 29.5t-138.5 -29.5t-115 -82.5t-78.5 -131.5t-29 -172.5z" />
<glyph unicode="&#xf6;" horiz-adv-x="1261" d="M98 524q0 124 42 229.5t113.5 177.5t169 112.5t207.5 40.5q109 0 206.5 -40.5t170 -112.5t115 -178t42.5 -229t-42.5 -227t-115 -174t-170 -109t-206.5 -39q-111 0 -208 39t-168.5 109t-113.5 173.5t-42 227.5zM269 526q0 -93 29 -171.5t78.5 -130t115 -80t138.5 -28.5 t138 28.5t114.5 80t78.5 130t29 171.5q0 94 -29 172.5t-78 131.5t-114.5 82.5t-138.5 29.5t-138.5 -29.5t-115 -82.5t-78.5 -131.5t-29 -172.5zM310 1454q0 47 35 82.5t80.5 35.5t80.5 -35.5t35 -82.5t-35 -83t-80.5 -36t-80.5 36t-35 83zM718 1453.5q0 47.5 34.5 83 t81.5 35.5q45 0 80.5 -35.5t35.5 -82.5t-35.5 -83t-80.5 -36q-47 0 -81.5 35.5t-34.5 83z" />
<glyph unicode="&#xf7;" horiz-adv-x="1231" d="M149 673v146h935v-146h-935zM491 373q0 52 37 89t89 37q50 0 86.5 -37t36.5 -89t-36.5 -87.5t-86.5 -35.5q-52 0 -89 35t-37 88zM491 1131.5q0 52.5 37 89t89 36.5q50 0 86.5 -36.5t36.5 -88.5t-36.5 -88.5t-86.5 -36.5q-52 0 -89 36t-37 88.5z" />
<glyph unicode="&#xf8;" horiz-adv-x="1264" d="M65 0l156 161q-120 146 -120 363q0 124 41.5 229.5t113 177.5t169 112.5t207.5 40.5q186 0 330 -115l81 89h141l-151 -156q133 -157 133 -378q0 -123 -42.5 -227t-115 -174t-169.5 -109t-207 -39q-199 0 -339 116l-86 -91h-142zM272 526q0 -144 63 -244l521 574 q-98 86 -224 86q-73 0 -138.5 -29.5t-114.5 -82.5t-78 -131.5t-29 -172.5zM396 207q99 -91 236 -91q73 0 138.5 28.5t115 80t78.5 130t29 171.5q0 150 -73 258z" />
<glyph unicode="&#xf9;" horiz-adv-x="1276" d="M156 461v597h174v-577q0 -78 17.5 -143t52.5 -114t91 -76t129 -27q62 0 115 19.5t88.5 50.5t60.5 71t37 80t14 79v637h173v-1058h-110l-31 151h-8q-7 -13 -20 -30t-45 -44.5t-71.5 -48.5t-102.5 -37t-136 -16q-135 0 -232.5 62t-146.5 171t-49 253zM351 1584l211 33 l133 -365h-126z" />
<glyph unicode="&#xfa;" horiz-adv-x="1276" d="M156 461v597h174v-577q0 -78 17.5 -143t52.5 -114t91 -76t129 -27q62 0 115 19.5t88.5 50.5t60.5 71t37 80t14 79v637h173v-1058h-110l-31 151h-8q-7 -13 -20 -30t-45 -44.5t-71.5 -48.5t-102.5 -37t-136 -16q-135 0 -232.5 62t-146.5 171t-49 253zM565 1252l132 365 l212 -33l-219 -332h-125z" />
<glyph unicode="&#xfb;" horiz-adv-x="1276" d="M156 461v597h174v-577q0 -78 17.5 -143t52.5 -114t91 -76t129 -27q62 0 115 19.5t88.5 50.5t60.5 71t37 80t14 79v637h173v-1058h-110l-31 151h-8q-7 -13 -20 -30t-45 -44.5t-71.5 -48.5t-102.5 -37t-136 -16q-135 0 -232.5 62t-146.5 171t-49 253zM327 1250l225 272h143 l230 -272h-165l-133 153l-139 -153h-161z" />
<glyph unicode="&#xfc;" horiz-adv-x="1276" d="M156 461v597h174v-577q0 -78 17.5 -143t52.5 -114t91 -76t129 -27q62 0 115 19.5t88.5 50.5t60.5 71t37 80t14 79v637h173v-1058h-110l-31 151h-8q-7 -13 -20 -30t-45 -44.5t-71.5 -48.5t-102.5 -37t-136 -16q-135 0 -232.5 62t-146.5 171t-49 253zM308 1368 q0 47 35 82.5t80.5 35.5t80.5 -35.5t35 -82.5t-35 -82.5t-80.5 -35.5t-80.5 35.5t-35 82.5zM716 1367.5q0 47.5 34.5 83t80.5 35.5t81 -35.5t35 -82.5t-35 -82.5t-81 -35.5t-80.5 35t-34.5 82.5z" />
<glyph unicode="&#xfd;" horiz-adv-x="1140" d="M33 1058h191l333 -784q17 -51 17 -70h10q0 26 15 70l331 784h178l-639 -1450h-182l206 442zM512 1252l133 365l211 -33l-219 -332h-125z" />
<glyph unicode="&#xfe;" horiz-adv-x="1319" d="M169 -392v1904h174v-666h8q1 5 5 13.5t18.5 33.5t32.5 47t49.5 49.5t68 47.5t89 33.5t112.5 13.5q104 0 194.5 -40t156.5 -111.5t104 -176t38 -227.5q0 -121 -38.5 -225t-104.5 -176t-156.5 -112.5t-193.5 -40.5q-48 0 -91 8.5t-76 22.5t-62 32t-49.5 38t-37.5 40t-28 38 t-18 32t-10 22l-3 8h-8v-608h-174zM335 529q0 -94 28.5 -172t77.5 -129t113.5 -79t137.5 -28q151 0 251 114t100 294q0 178 -100 293t-251 115q-73 0 -137.5 -28t-113.5 -79t-77.5 -129t-28.5 -172z" />
<glyph unicode="&#xff;" horiz-adv-x="1140" d="M33 1058h191l333 -784q17 -51 17 -70h10q0 26 15 70l331 784h178l-639 -1450h-182l206 442zM257 1368q0 47 35 82.5t80.5 35.5t80.5 -35.5t35 -82.5t-35 -82.5t-80.5 -35.5t-80.5 35.5t-35 82.5zM665 1367.5q0 47.5 34.5 83t81.5 35.5q45 0 80.5 -35.5t35.5 -82.5 t-35.5 -82.5t-80.5 -35.5q-47 0 -81.5 35t-34.5 82.5z" />
<glyph unicode="&#x152;" horiz-adv-x="2586" d="M106 753q0 166 53 311t148.5 251t236 167.5t307.5 61.5q180 0 326 -67t246 -189v224h1060v-164h-884v-502h756v-163h-756v-519h884v-164h-1060v221q-100 -122 -246 -189.5t-326 -67.5q-166 0 -307 61.5t-236.5 167.5t-148.5 250.5t-53 309.5zM287 753q0 -127 39.5 -240 t111 -197t179 -133t234.5 -49q129 0 237 49t180 133t112.5 197t40.5 240q0 128 -40.5 242t-112.5 199t-180 134.5t-237 49.5q-127 0 -234 -49.5t-179 -134.5t-111.5 -199t-39.5 -242z" />
<glyph unicode="&#x153;" horiz-adv-x="2036" d="M98 524q0 124 42 229.5t113.5 177.5t169 112.5t207.5 40.5q135 0 252 -63t191 -175q64 112 171 175t244 63q112 0 201.5 -41t147 -112.5t87.5 -166.5t30 -207v-43h-788q2 -95 31 -170.5t79 -124t116 -73.5t144 -25q55 0 106 10t84.5 25t59.5 30t38 25l12 10l66 -125 q-5 -5 -14 -13.5t-42.5 -30t-73 -37.5t-106 -29.5t-140.5 -13.5q-152 0 -269 61.5t-184 173.5q-72 -111 -188 -171.5t-255 -60.5q-111 0 -208 39t-168.5 109t-113.5 173.5t-42 227.5zM269 526q0 -93 29 -171.5t78.5 -130t115 -80t138.5 -28.5t138 28.5t114.5 80t78.5 130 t29 171.5q0 94 -29 172.5t-78 131.5t-114.5 82.5t-138.5 29.5t-138.5 -29.5t-115 -82.5t-78.5 -131.5t-29 -172.5zM1176 654h600q-18 139 -92 210t-198 71q-128 0 -206.5 -70t-103.5 -211z" />
<glyph unicode="&#x178;" horiz-adv-x="1334" d="M22 1512h207l393 -676l46 -96h5l48 96l387 676h204l-557 -933v-579h-176v579zM351 1801q0 47 35 83t80 36t80.5 -36t35.5 -83t-35 -82.5t-80.5 -35.5t-80.5 35.5t-35 82.5zM758 1801q0 47 35 83t82 36q45 0 80 -36t35 -83t-35 -82.5t-80 -35.5q-47 0 -82 35.5t-35 82.5z " />
<glyph unicode="&#x2c6;" horiz-adv-x="933" d="M184 1683l224 271h144l229 -271h-164l-134 153l-137 -153h-162z" />
<glyph unicode="&#x2dc;" horiz-adv-x="1221" d="M173 1695l14 66q43 209 219 209q42 0 84.5 -15.5t77.5 -37.5t68.5 -44.5t68.5 -38t66 -15.5q56 0 81.5 30t36.5 83l8 38l123 -13l-10 -63q-8 -44 -23.5 -80t-41 -66.5t-65 -47.5t-89.5 -17q-43 0 -87 15t-79.5 37t-69 44t-68 37t-64.5 15q-28 0 -48 -8t-33 -25.5t-20 -34 t-14 -42.5l-10 -41z" />
<glyph unicode="&#x2000;" horiz-adv-x="1024" />
<glyph unicode="&#x2001;" horiz-adv-x="2048" />
<glyph unicode="&#x2002;" horiz-adv-x="1024" />
<glyph unicode="&#x2003;" horiz-adv-x="2048" />
<glyph unicode="&#x2004;" horiz-adv-x="682" />
<glyph unicode="&#x2005;" horiz-adv-x="512" />
<glyph unicode="&#x2006;" horiz-adv-x="341" />
<glyph unicode="&#x2007;" horiz-adv-x="341" />
<glyph unicode="&#x2008;" horiz-adv-x="256" />
<glyph unicode="&#x2009;" horiz-adv-x="409" />
<glyph unicode="&#x200a;" horiz-adv-x="113" />
<glyph unicode="&#x2010;" horiz-adv-x="1002" d="M149 504v145h705v-145h-705z" />
<glyph unicode="&#x2011;" horiz-adv-x="1002" d="M149 504v145h705v-145h-705z" />
<glyph unicode="&#x2012;" horiz-adv-x="1002" d="M149 504v145h705v-145h-705z" />
<glyph unicode="&#x2013;" horiz-adv-x="1170" d="M154 652v146h844v-146h-844z" />
<glyph unicode="&#x2014;" horiz-adv-x="1808" d="M154 652v146h1481v-146h-1481z" />
<glyph unicode="&#x2018;" horiz-adv-x="538" d="M121 1111v21q0 152 81 252.5t224 127.5l30 -101q-86 -21 -139.5 -72t-56.5 -115q41 -6 69.5 -38t28.5 -75q0 -49 -34.5 -83.5t-83.5 -34.5t-84 34.5t-35 83.5z" />
<glyph unicode="&#x2019;" horiz-adv-x="548" d="M113 1093q86 19 138.5 68.5t58.5 115.5q-42 7 -70 40.5t-28 76.5q0 48 34.5 83t83.5 35t84 -35t35 -83v-21q0 -153 -81 -253.5t-224 -126.5z" />
<glyph unicode="&#x201a;" horiz-adv-x="507" d="M36 -209q86 21 138 71.5t57 115.5q-41 5 -69 37.5t-28 75.5q0 49 34.5 83.5t83.5 34.5t83.5 -34.5t34.5 -83.5v-21q0 -152 -81 -252.5t-224 -127.5z" />
<glyph unicode="&#x201c;" horiz-adv-x="904" d="M121 1111v21q0 152 81 252.5t224 127.5l30 -101q-86 -21 -139.5 -72t-56.5 -115q41 -6 69.5 -38t28.5 -75q0 -49 -34.5 -83.5t-83.5 -34.5t-84 34.5t-35 83.5zM486 1111v21q0 152 81 252.5t224 127.5l31 -101q-87 -21 -140 -72t-57 -115q42 -6 70 -38t28 -75 q0 -49 -34.5 -83.5t-83.5 -34.5t-84 34.5t-35 83.5z" />
<glyph unicode="&#x201d;" horiz-adv-x="911" d="M111 1093q85 19 138 68.5t59 115.5q-42 7 -70.5 40.5t-28.5 76.5q0 48 34.5 83t83.5 35t83.5 -35t34.5 -83v-21q0 -153 -80.5 -253.5t-223.5 -126.5zM476 1093q86 19 138.5 68.5t58.5 115.5q-42 7 -70.5 40.5t-28.5 76.5q0 48 35 83t83.5 35t83.5 -35t35 -83v-21 q0 -153 -81 -253.5t-223 -126.5z" />
<glyph unicode="&#x201e;" horiz-adv-x="1077" d="M36 -209q86 21 138 71.5t57 115.5q-41 5 -69 37.5t-28 75.5q0 49 34.5 83.5t83.5 34.5t83.5 -34.5t34.5 -83.5v-21q0 -152 -81 -252.5t-224 -127.5zM605 -209q86 21 138 71.5t58 115.5q-42 5 -70.5 37.5t-28.5 75.5q0 49 35.5 83.5t84.5 34.5t83.5 -34.5t34.5 -83.5v-21 q0 -152 -81.5 -252.5t-223.5 -127.5z" />
<glyph unicode="&#x2022;" horiz-adv-x="782" d="M207 562q0 76 54 129.5t131 53.5q76 0 130.5 -53.5t54.5 -129t-54.5 -129t-130.5 -53.5q-77 0 -131 53t-54 129z" />
<glyph unicode="&#x2026;" horiz-adv-x="1779" d="M144 118q0 61 41 103.5t102 42.5q60 0 103 -42.5t43 -103.5q0 -60 -42.5 -101.5t-103.5 -41.5t-102 41t-41 102zM745 118q0 61 42 103.5t102 42.5q61 0 104 -42.5t43 -103.5q0 -60 -42.5 -101.5t-104.5 -41.5q-61 0 -102.5 41t-41.5 102zM1348 118q0 61 41 103.5 t102 42.5t103.5 -42.5t42.5 -103.5q0 -60 -42.5 -101.5t-103.5 -41.5t-102 41t-41 102z" />
<glyph unicode="&#x202f;" horiz-adv-x="409" />
<glyph unicode="&#x2039;" horiz-adv-x="669" d="M106 496v59l302 473h152v-26l-296 -468v-12l296 -476v-26h-152z" />
<glyph unicode="&#x203a;" horiz-adv-x="666" d="M108 20v26l298 476v12l-298 468v26h154l303 -473v-59l-303 -476h-154z" />
<glyph unicode="&#x205f;" horiz-adv-x="512" />
<glyph unicode="&#x20ac;" horiz-adv-x="1420" d="M101 512v135h171q-5 38 -5 113q0 43 5 124h-171v136h194q27 114 78 207.5t125 165t178 111.5t228 40q58 0 111.5 -10t93.5 -26t75 -35.5t58.5 -38.5t40 -35t24.5 -26l8 -10l-89 -134q-4 6 -13 16t-39 35.5t-64.5 45t-89.5 36t-113 16.5q-177 0 -282 -94.5t-147 -263.5 h517v-136h-539q-5 -81 -5 -124q0 -77 5 -113h539v-135h-519q19 -87 53.5 -155.5t86.5 -120.5t125.5 -80t165.5 -28q58 0 112.5 15t90.5 36.5t63.5 43t40.5 36.5l12 15l86 -125q-5 -8 -15 -20t-47 -43.5t-80.5 -55.5t-115 -43.5t-150.5 -19.5q-125 0 -229.5 41.5t-179 116.5 t-124.5 172t-76 215h-194z" />
<glyph unicode="&#x2122;" horiz-adv-x="1774" d="M84 1403v109h608v-109h-243v-696h-122v696h-243zM841 707v805h91l287 -375l295 375h85v-805h-121v581l-241 -313h-33l-240 307v-575h-123z" />
<glyph unicode="&#x25fc;" horiz-adv-x="1057" d="M0 0v1058h1058v-1058h-1058z" />
</font>
</defs>
</svg>
