<?xml version="1.0" encoding="utf-8"?>
<!-- Generator: Adobe Illustrator 19.0.0, SVG Export Plug-In . SVG Version: 6.00 Build 0)  -->
<svg version="1.1" id="Laag_1" xmlns="http://www.w3.org/2000/svg" xmlns:xlink="http://www.w3.org/1999/xlink" x="0px" y="0px"
	 viewBox="0 0 530 250" style="enable-background:new 0 0 530 250;" xml:space="preserve">
<style type="text/css">
	.st0{fill:#010101;}
	.st1{fill:#F26536;}
	.st2{opacity:0.2;}
	.st3{clip-path:url(#XMLID_33_);}
	.st4{fill:#FFFFFF;}
	.st5{fill:#C4C3C4;}
	.st6{fill:#2ABEC4;}
	.st7{opacity:0.7;}
	.st8{clip-path:url(#XMLID_38_);}
	.st9{fill:#E1E1E2;}
	.st10{fill:#383639;}
	.st11{fill:#AAA290;}
	.st12{fill:#E8E0D1;}
	.st13{fill:#C5BBA6;}
	.st14{fill:#121013;}
	.st15{fill:#B4A892;}
	.st16{fill:#A7A6A7;}
	.st17{fill:#7ECECF;}
	.st18{opacity:0.4;}
	.st19{clip-path:url(#XMLID_39_);}
	.st20{fill:#5F5C61;}
	.st21{clip-path:url(#XMLID_40_);}
	.st22{clip-path:url(#XMLID_41_);}
	.st23{clip-path:url(#XMLID_42_);}
	.st24{clip-path:url(#XMLID_44_);}
	.st25{clip-path:url(#XMLID_47_);}
	.st26{clip-path:url(#XMLID_243_);}
	.st27{clip-path:url(#XMLID_246_);}
	.st28{clip-path:url(#XMLID_249_);}
	.st29{clip-path:url(#XMLID_250_);}
	.st30{clip-path:url(#XMLID_251_);}
	.st31{clip-path:url(#XMLID_252_);}
	.st32{clip-path:url(#XMLID_253_);}
	.st33{opacity:0.4;clip-path:url(#XMLID_254_);}
	.st34{clip-path:url(#XMLID_255_);}
	.st35{clip-path:url(#XMLID_256_);}
	.st36{clip-path:url(#XMLID_257_);}
	.st37{clip-path:url(#XMLID_258_);}
	.st38{clip-path:url(#XMLID_259_);}
	.st39{clip-path:url(#XMLID_260_);}
	.st40{clip-path:url(#XMLID_261_);}
	.st41{clip-path:url(#XMLID_262_);}
	.st42{clip-path:url(#XMLID_263_);}
	.st43{clip-path:url(#XMLID_264_);}
	.st44{clip-path:url(#XMLID_265_);}
	.st45{clip-path:url(#XMLID_266_);}
	.st46{clip-path:url(#XMLID_267_);}
	.st47{clip-path:url(#XMLID_268_);}
	.st48{clip-path:url(#XMLID_271_);}
	.st49{clip-path:url(#XMLID_272_);}
	.st50{clip-path:url(#XMLID_273_);}
	.st51{clip-path:url(#XMLID_274_);}
	.st52{clip-path:url(#XMLID_275_);}
	.st53{fill:#F5F6F6;}
	.st54{fill:#C44327;}
	.st55{clip-path:url(#XMLID_286_);}
	.st56{clip-path:url(#XMLID_287_);}
	.st57{fill:#101518;}
	.st58{opacity:0.5;fill:#2C2F30;}
	.st59{opacity:0.5;fill:#101518;}
	.st60{fill:#2C2F30;}
	.st61{opacity:0.35;fill:#101518;}
	.st62{opacity:0.7;fill:#787D7F;}
	.st63{opacity:0.25;fill:#C6CAC9;}
	.st64{opacity:0.7;fill:#5B6061;}
	.st65{fill:#303433;}
	.st66{fill-rule:evenodd;clip-rule:evenodd;fill:#3EB892;}
</style>
<g>
	<g>
		<g>
			<rect id="XMLID_241_" x="395.9" y="138.8" class="st0" width="1" height="32.4"/>
		</g>
		<g>
			<polygon id="XMLID_240_" class="st1" points="392.4,131.2 384.3,139.3 384.3,204.2 416.7,204.2 416.7,139.3 408.6,131.2 			"/>
		</g>
		<g>
			<rect id="XMLID_239_" x="400" y="138.8" class="st0" width="1" height="32.4"/>
		</g>
		<g>
			<rect id="XMLID_238_" x="404" y="138.8" class="st0" width="1" height="32.4"/>
		</g>
		<g class="st2">
			<g>
				<defs>
					<rect id="XMLID_234_" x="384.3" y="131.2" width="32.4" height="73"/>
				</defs>
				<clipPath id="XMLID_33_">
					<use xlink:href="#XMLID_234_"  style="overflow:visible;"/>
				</clipPath>
				<g class="st3">
					<polygon id="XMLID_237_" class="st4" points="384.3,204.2 416.7,204.2 416.7,198.1 384.3,165.6 					"/>
				</g>
				<g class="st3">
					<polygon id="XMLID_236_" class="st4" points="384.3,139.3 384.3,155.8 416.7,188.3 416.7,171.1 384.6,139 					"/>
				</g>
				<g class="st3">
					<polygon id="XMLID_235_" class="st4" points="394.2,131.2 416.7,153.7 416.7,149.4 398.5,131.2 					"/>
				</g>
			</g>
		</g>
		<g>
			<g>
				<path id="XMLID_233_" class="st4" d="M197.4,61.9c0,2.2-1.8,4.1-4.1,4.1h-64.9c-2.2,0-4.1-1.8-4.1-4.1V21.3
					c0-2.2,1.8-4.1,4.1-4.1h64.9c2.2,0,4.1,1.8,4.1,4.1V61.9z"/>
			</g>
			<g>
				<rect id="XMLID_232_" x="132.5" y="59.4" class="st5" width="10.1" height="1"/>
			</g>
			<g>
				<rect id="XMLID_231_" x="144.6" y="59.4" class="st5" width="14.2" height="1"/>
			</g>
			<g>
				<rect id="XMLID_230_" x="173" y="59.4" class="st5" width="14.2" height="1"/>
			</g>
			<g>
				<rect id="XMLID_229_" x="173" y="50.2" class="st0" width="8.1" height="1"/>
			</g>
			<g>
				<rect id="XMLID_228_" x="183.2" y="50.2" class="st0" width="6.1" height="1"/>
			</g>
			<g>
				<line id="XMLID_227_" class="st6" x1="179.1" y1="43.7" x2="179.1" y2="23.4"/>
			</g>
			<g>
				<line id="XMLID_226_" class="st6" x1="189.2" y1="33.5" x2="169" y2="33.5"/>
			</g>
			<g>
				<rect id="XMLID_225_" x="132.5" y="46.7" class="st0" width="56.8" height="2"/>
			</g>
			<g>
				<polygon id="XMLID_224_" class="st1" points="140.5,37.6 137.5,37.6 132.4,37.6 132.4,39.6 132.4,41.6 132.4,43.7 137.5,43.7 
					140.5,43.7 143.6,43.7 143.6,37.6 				"/>
			</g>
			<g>
				<path class="st5" d="M179.1,44.2c-5.9,0-10.6-4.8-10.6-10.6c0-5.9,4.8-10.6,10.6-10.6c5.9,0,10.6,4.8,10.6,10.6
					C189.8,39.4,185,44.2,179.1,44.2 M179.1,23.9c-5.3,0-9.6,4.3-9.6,9.6c0,5.3,4.3,9.6,9.6,9.6c5.3,0,9.6-4.3,9.6-9.6
					C188.7,28.2,184.4,23.9,179.1,23.9"/>
			</g>
			<g>
				<rect id="XMLID_221_" x="178.6" y="23.4" class="st5" width="1" height="20.3"/>
			</g>
			<g>
				<path class="st5" d="M179.1,44.2c-3.1,0-5.6-4.7-5.6-10.6s2.4-10.6,5.6-10.6c3.1,0,5.6,4.7,5.6,10.6S182.2,44.2,179.1,44.2
					 M179.1,23.9c-2.5,0-4.6,4.4-4.6,9.6s2.1,9.6,4.6,9.6c2.5,0,4.6-4.4,4.6-9.6S181.6,23.9,179.1,23.9"/>
			</g>
			<g>
				<rect id="XMLID_218_" x="169" y="33" class="st5" width="20.3" height="1"/>
			</g>
			<g>
				<path class="st5" d="M179.1,39.1c-6,0-10.6-2.4-10.6-5.6c0-3.1,4.7-5.6,10.6-5.6c6,0,10.6,2.4,10.6,5.6
					C189.8,36.6,185.1,39.1,179.1,39.1 M179.1,29c-5.2,0-9.6,2.1-9.6,4.6c0,2.5,4.4,4.6,9.6,4.6c5.2,0,9.6-2.1,9.6-4.6
					C188.7,31,184.3,29,179.1,29"/>
			</g>
			<g class="st7">
				<g>
					<defs>
						<rect id="XMLID_212_" x="128.5" y="17.3" width="68.7" height="48.7"/>
					</defs>
					<clipPath id="XMLID_38_">
						<use xlink:href="#XMLID_212_"  style="overflow:visible;"/>
					</clipPath>
					<g class="st8">
						<polygon id="XMLID_215_" class="st9" points="177.2,17.3 128.5,66 139.4,66 188,17.3 						"/>
					</g>
					<g class="st8">
						<path id="XMLID_214_" class="st9" d="M178.1,66h15.1c2.2,0,4.1-1.8,4.1-4.1V46.8L178.1,66z"/>
					</g>
					<g class="st8">
						<polygon id="XMLID_213_" class="st9" points="197.3,28.9 160.2,66 175.6,66 197.3,44.3 						"/>
					</g>
				</g>
			</g>
		</g>
		<g>
			<g>
				<polygon id="XMLID_211_" class="st10" points="290.2,0 290.2,6.1 298.3,4.1 				"/>
			</g>
			<g>
				<polygon id="XMLID_210_" class="st10" points="387.5,6.1 387.5,0 379.4,4.1 				"/>
			</g>
			<g>
				<polygon id="XMLID_209_" class="st11" points="379.4,0 298.3,0 290.2,0 298.3,4.1 298.3,8.1 379.4,8.1 379.4,4.1 387.5,0 				
					"/>
			</g>
			<g>
				<polygon id="XMLID_208_" class="st12" points="387.5,6.1 379.4,4.1 379.4,8.1 387.5,8.1 395.6,8.1 				"/>
			</g>
			<g>
				<polygon id="XMLID_207_" class="st12" points="282,8.1 290.2,8.1 298.3,8.1 298.3,4.1 290.2,6.1 				"/>
			</g>
			<g>
				<rect id="XMLID_206_" x="282" y="8.1" class="st13" width="113.5" height="133.8"/>
			</g>
			<g>
				<path id="XMLID_205_" class="st14" d="M373.3,24.3c0,1.1-0.9,2-2,2s-2-0.9-2-2c0-1.1,0.9-2,2-2S373.3,23.2,373.3,24.3"/>
			</g>
			<g>
				<path id="XMLID_204_" class="st14" d="M308.4,24.3c0,1.1-0.9,2-2,2c-1.1,0-2-0.9-2-2c0-1.1,0.9-2,2-2
					C307.5,22.3,308.4,23.2,308.4,24.3"/>
			</g>
			<g>
				<path id="XMLID_203_" class="st15" d="M338.8,63.9c-18.4,0-33.5-21.1-33.5-39.5c0-0.6,0.5-1,1-1c0.6,0,1,0.5,1,1
					c0,17.3,14.1,37.5,31.4,37.5c17.3,0,31.4-20.2,31.4-37.5c0-0.6,0.5-1,1-1c0.6,0,1,0.5,1,1C372.3,42.8,357.3,63.9,338.8,63.9"/>
			</g>
			<g>
				<path id="XMLID_202_" class="st4" d="M338.8,57.8c-18.4,0-33.5-15-33.5-33.5c0-0.6,0.5-1,1-1c0.6,0,1,0.5,1,1
					c0,17.3,14.1,31.4,31.4,31.4c17.3,0,31.4-14.1,31.4-31.4c0-0.6,0.5-1,1-1c0.6,0,1,0.5,1,1C372.3,42.8,357.3,57.8,338.8,57.8"/>
			</g>
		</g>
		<g>
			<g>
				<rect id="XMLID_201_" x="180.2" y="96.9" class="st16" width="172.5" height="125"/>
			</g>
			<g>
				<rect id="XMLID_200_" x="160.3" y="77" class="st4" width="212.3" height="13.3"/>
			</g>
			<g>
				<rect id="XMLID_199_" x="166.9" y="90.2" class="st4" width="199.1" height="6.6"/>
			</g>
			<g>
				<rect id="XMLID_198_" x="166.9" y="96.9" class="st4" width="13.3" height="125"/>
			</g>
			<g>
				<rect id="XMLID_197_" x="352.7" y="96.9" class="st4" width="13.3" height="125"/>
			</g>
			<g>
				<rect id="XMLID_196_" x="186.8" y="135.6" class="st17" width="99.5" height="59.7"/>
			</g>
			<g class="st18">
				<g>
					<defs>
						<rect id="XMLID_191_" x="186.8" y="136.4" width="100.4" height="60.5"/>
					</defs>
					<clipPath id="XMLID_39_">
						<use xlink:href="#XMLID_191_"  style="overflow:visible;"/>
					</clipPath>
					<g class="st19">
						<path class="st20" d="M254.8,136.4h-1.7h-31.5H220h-33.2V197h1.7v-29H220v29h1.7v-29h31.5v29h1.7v-29h31.5v29h0.8v-60.5H254.8
							z M188.5,138.1H220v28.2h-31.5V138.1z M221.7,138.1h31.5v28.2h-31.5V138.1z M254.8,138.1h31.5v28.2h-31.5V138.1z"/>
					</g>
				</g>
			</g>
			<g>
				<path class="st9" d="M254,135.6h-1.7h-31.5h-1.7H186v60.5h1.7v-29h31.5v29h1.7v-29h31.5v29h1.7v-29h31.5v29h1.7v-60.5H254z
					 M187.7,137.2h31.5v28.2h-31.5V137.2z M220.8,137.2h31.5v28.2h-31.5V137.2z M254,137.2h31.5v28.2H254V137.2z"/>
			</g>
			<g>
				<rect id="XMLID_186_" x="183.5" y="195.3" class="st4" width="106.2" height="6.6"/>
			</g>
			<g class="st18">
				<g>
					<defs>
						<rect id="XMLID_184_" x="183.5" y="201.9" width="106.2" height="0.8"/>
					</defs>
					<clipPath id="XMLID_40_">
						<use xlink:href="#XMLID_184_"  style="overflow:visible;"/>
					</clipPath>
					<g class="st21">
						<rect id="XMLID_185_" x="183.5" y="201.9" class="st20" width="106.2" height="0.8"/>
					</g>
				</g>
			</g>
			<g class="st18">
				<g>
					<defs>
						<rect id="XMLID_182_" x="166.9" y="90.2" width="199.1" height="0.8"/>
					</defs>
					<clipPath id="XMLID_41_">
						<use xlink:href="#XMLID_182_"  style="overflow:visible;"/>
					</clipPath>
					<g class="st22">
						<rect id="XMLID_183_" x="166.9" y="90.2" class="st20" width="199.1" height="0.8"/>
					</g>
				</g>
			</g>
			<g>
				<rect id="XMLID_181_" x="160.3" y="208.6" class="st10" width="212.3" height="13.3"/>
			</g>
			<g class="st18">
				<g>
					<defs>
						<rect id="XMLID_179_" x="180.2" y="96.9" width="0.8" height="111.7"/>
					</defs>
					<clipPath id="XMLID_42_">
						<use xlink:href="#XMLID_179_"  style="overflow:visible;"/>
					</clipPath>
					<g class="st23">
						<rect id="XMLID_180_" x="180.2" y="96.9" class="st20" width="0.8" height="111.7"/>
					</g>
				</g>
			</g>
			<g class="st18">
				<g>
					<defs>
						<rect id="XMLID_177_" x="181" y="96.9" width="171.7" height="1.7"/>
					</defs>
					<clipPath id="XMLID_44_">
						<use xlink:href="#XMLID_177_"  style="overflow:visible;"/>
					</clipPath>
					<g class="st24">
						<rect id="XMLID_178_" x="181" y="96.9" class="st20" width="171.7" height="1.7"/>
					</g>
				</g>
			</g>
			<g class="st18">
				<g>
					<defs>
						<rect id="XMLID_175_" x="287.2" y="135.6" width="0.8" height="59.7"/>
					</defs>
					<clipPath id="XMLID_47_">
						<use xlink:href="#XMLID_175_"  style="overflow:visible;"/>
					</clipPath>
					<g class="st25">
						<rect id="XMLID_176_" x="287.2" y="135.6" class="st20" width="0.8" height="59.7"/>
					</g>
				</g>
			</g>
			<g class="st18">
				<g>
					<defs>
						<rect id="XMLID_173_" x="289.7" y="195.3" width="0.8" height="7.5"/>
					</defs>
					<clipPath id="XMLID_243_">
						<use xlink:href="#XMLID_173_"  style="overflow:visible;"/>
					</clipPath>
					<g class="st26">
						<rect id="XMLID_174_" x="289.7" y="195.3" class="st20" width="0.8" height="7.5"/>
					</g>
				</g>
			</g>
			<g>
				<rect id="XMLID_172_" x="222.9" y="57.1" class="st1" width="86.3" height="26.5"/>
			</g>
			<g class="st18">
				<g>
					<defs>
						<rect id="XMLID_170_" x="222.9" y="83.6" width="86.3" height="0.8"/>
					</defs>
					<clipPath id="XMLID_246_">
						<use xlink:href="#XMLID_170_"  style="overflow:visible;"/>
					</clipPath>
					<g class="st27">
						<rect id="XMLID_171_" x="222.9" y="83.6" class="st20" width="86.3" height="0.8"/>
					</g>
				</g>
			</g>
			<g>
				<rect id="XMLID_169_" x="181.9" y="100.5" class="st16" width="169.2" height="6.1"/>
			</g>
			<g>
				<rect id="XMLID_168_" x="160.3" y="203.3" class="st10" width="212.3" height="12.2"/>
			</g>
			<g class="st18">
				<g>
					<defs>
						<rect id="XMLID_166_" x="346.1" y="135.6" width="0.8" height="86.3"/>
					</defs>
					<clipPath id="XMLID_249_">
						<use xlink:href="#XMLID_166_"  style="overflow:visible;"/>
					</clipPath>
					<g class="st28">
						<rect id="XMLID_167_" x="346.1" y="135.6" class="st20" width="0.8" height="86.3"/>
					</g>
				</g>
			</g>
			<g>
				<rect id="XMLID_165_" x="293" y="135.6" class="st17" width="53.1" height="86.3"/>
			</g>
			<g>
				<polygon id="XMLID_164_" class="st6" points="293,135.6 293,167.4 311.7,135.6 				"/>
			</g>
			<g>
				<path class="st4" d="M341.1,216.9H298v-76.3h43.1V216.9z M346.1,135.6H293v86.3h53.1V135.6z"/>
			</g>
			<g class="st18">
				<g>
					<defs>
						<rect id="XMLID_160_" x="298" y="140.6" width="0.8" height="76.3"/>
					</defs>
					<clipPath id="XMLID_250_">
						<use xlink:href="#XMLID_160_"  style="overflow:visible;"/>
					</clipPath>
					<g class="st29">
						<rect id="XMLID_161_" x="298" y="140.6" class="st20" width="0.8" height="76.3"/>
					</g>
				</g>
			</g>
			<g>
				<rect id="XMLID_159_" x="294.7" y="175.4" class="st9" width="49.8" height="6.6"/>
			</g>
			<g class="st18">
				<g>
					<defs>
						<rect id="XMLID_157_" x="294.7" y="182" width="49.8" height="0.8"/>
					</defs>
					<clipPath id="XMLID_251_">
						<use xlink:href="#XMLID_157_"  style="overflow:visible;"/>
					</clipPath>
					<g class="st30">
						<rect id="XMLID_158_" x="294.7" y="182" class="st20" width="49.8" height="0.8"/>
					</g>
				</g>
			</g>
			<g class="st18">
				<g>
					<defs>
						<rect id="XMLID_155_" x="298" y="177.9" width="13.3" height="1.7"/>
					</defs>
					<clipPath id="XMLID_252_">
						<use xlink:href="#XMLID_155_"  style="overflow:visible;"/>
					</clipPath>
					<g class="st31">
						<rect id="XMLID_156_" x="298" y="177.9" class="st20" width="13.3" height="1.7"/>
					</g>
				</g>
			</g>
			<g class="st18">
				<g>
					<defs>
						<rect id="XMLID_153_" x="312.7" y="152" width="13.7" height="15.3"/>
					</defs>
					<clipPath id="XMLID_253_">
						<use xlink:href="#XMLID_153_"  style="overflow:visible;"/>
					</clipPath>
					<g class="st32">
						<path id="XMLID_154_" class="st20" d="M326.2,167.3c-0.1,0-0.2,0-0.2-0.1l-6.4-14.5l-6.4,14.5c0,0.1-0.2,0.2-0.3,0.1
							c-0.1,0-0.2-0.2-0.1-0.3l6.6-14.9c0-0.1,0.1-0.1,0.2-0.1c0.1,0,0.2,0,0.2,0.1l6.6,14.9C326.4,167.1,326.4,167.2,326.2,167.3
							C326.2,167.3,326.2,167.3,326.2,167.3"/>
					</g>
				</g>
			</g>
			<g>
				<rect id="XMLID_152_" x="309.6" y="162.1" class="st4" width="19.9" height="10"/>
			</g>
			<g>
				<path id="XMLID_151_" class="st4" d="M320.4,152.2c0,0.5-0.4,0.8-0.8,0.8c-0.5,0-0.8-0.4-0.8-0.8c0-0.5,0.4-0.8,0.8-0.8
					C320,151.3,320.4,151.7,320.4,152.2"/>
			</g>
			<g>
				<defs>
					<rect id="XMLID_114_" x="166.9" y="146.1" width="199.1" height="66.6"/>
				</defs>
				<clipPath id="XMLID_254_">
					<use xlink:href="#XMLID_114_"  style="overflow:visible;"/>
				</clipPath>
				<g class="st33">
					<g>
						<defs>
							<rect id="XMLID_149_" x="157" y="148.1" width="12.9" height="6.4"/>
						</defs>
						<clipPath id="XMLID_255_">
							<use xlink:href="#XMLID_149_"  style="overflow:visible;"/>
						</clipPath>
						<g class="st34">
							<path id="XMLID_150_" class="st20" d="M169.9,148.1c0,3.6-2.9,6.4-6.4,6.4c-3.6,0-6.4-2.9-6.4-6.4"/>
						</g>
					</g>
				</g>
				<g class="st33">
					<g>
						<defs>
							<rect id="XMLID_147_" x="169.9" y="148.1" width="12.9" height="6.4"/>
						</defs>
						<clipPath id="XMLID_256_">
							<use xlink:href="#XMLID_147_"  style="overflow:visible;"/>
						</clipPath>
						<g class="st35">
							<path id="XMLID_148_" class="st20" d="M182.7,148.1c0,3.6-2.9,6.4-6.4,6.4c-3.6,0-6.4-2.9-6.4-6.4"/>
						</g>
					</g>
				</g>
				<g class="st33">
					<g>
						<defs>
							<rect id="XMLID_145_" x="182.7" y="148.1" width="12.9" height="6.4"/>
						</defs>
						<clipPath id="XMLID_257_">
							<use xlink:href="#XMLID_145_"  style="overflow:visible;"/>
						</clipPath>
						<g class="st36">
							<path id="XMLID_146_" class="st20" d="M195.6,148.1c0,3.6-2.9,6.4-6.4,6.4c-3.6,0-6.4-2.9-6.4-6.4"/>
						</g>
					</g>
				</g>
				<g class="st33">
					<g>
						<defs>
							<rect id="XMLID_143_" x="195.6" y="148.1" width="12.9" height="6.4"/>
						</defs>
						<clipPath id="XMLID_258_">
							<use xlink:href="#XMLID_143_"  style="overflow:visible;"/>
						</clipPath>
						<g class="st37">
							<path id="XMLID_144_" class="st20" d="M208.5,148.1c0,3.6-2.9,6.4-6.4,6.4c-3.6,0-6.4-2.9-6.4-6.4"/>
						</g>
					</g>
				</g>
				<g class="st33">
					<g>
						<defs>
							<rect id="XMLID_141_" x="208.5" y="148.1" width="12.9" height="6.4"/>
						</defs>
						<clipPath id="XMLID_259_">
							<use xlink:href="#XMLID_141_"  style="overflow:visible;"/>
						</clipPath>
						<g class="st38">
							<path id="XMLID_142_" class="st20" d="M221.4,148.1c0,3.6-2.9,6.4-6.4,6.4s-6.4-2.9-6.4-6.4"/>
						</g>
					</g>
				</g>
				<g class="st33">
					<g>
						<defs>
							<rect id="XMLID_139_" x="221.4" y="148.1" width="12.9" height="6.4"/>
						</defs>
						<clipPath id="XMLID_260_">
							<use xlink:href="#XMLID_139_"  style="overflow:visible;"/>
						</clipPath>
						<g class="st39">
							<path id="XMLID_140_" class="st20" d="M234.3,148.1c0,3.6-2.9,6.4-6.4,6.4c-3.6,0-6.4-2.9-6.4-6.4"/>
						</g>
					</g>
				</g>
				<g class="st33">
					<g>
						<defs>
							<rect id="XMLID_137_" x="234.3" y="148.1" width="12.9" height="6.4"/>
						</defs>
						<clipPath id="XMLID_261_">
							<use xlink:href="#XMLID_137_"  style="overflow:visible;"/>
						</clipPath>
						<g class="st40">
							<path id="XMLID_138_" class="st20" d="M247.1,148.1c0,3.6-2.9,6.4-6.4,6.4c-3.6,0-6.4-2.9-6.4-6.4"/>
						</g>
					</g>
				</g>
				<g class="st33">
					<g>
						<defs>
							<rect id="XMLID_135_" x="247.1" y="148.1" width="12.9" height="6.4"/>
						</defs>
						<clipPath id="XMLID_262_">
							<use xlink:href="#XMLID_135_"  style="overflow:visible;"/>
						</clipPath>
						<g class="st41">
							<path id="XMLID_136_" class="st20" d="M260,148.1c0,3.6-2.9,6.4-6.4,6.4c-3.6,0-6.4-2.9-6.4-6.4"/>
						</g>
					</g>
				</g>
				<g class="st33">
					<g>
						<defs>
							<rect id="XMLID_133_" x="260" y="148.1" width="12.9" height="6.4"/>
						</defs>
						<clipPath id="XMLID_263_">
							<use xlink:href="#XMLID_133_"  style="overflow:visible;"/>
						</clipPath>
						<g class="st42">
							<path id="XMLID_134_" class="st20" d="M272.9,148.1c0,3.6-2.9,6.4-6.4,6.4c-3.6,0-6.4-2.9-6.4-6.4"/>
						</g>
					</g>
				</g>
				<g class="st33">
					<g>
						<defs>
							<rect id="XMLID_131_" x="272.9" y="148.1" width="12.9" height="6.4"/>
						</defs>
						<clipPath id="XMLID_264_">
							<use xlink:href="#XMLID_131_"  style="overflow:visible;"/>
						</clipPath>
						<g class="st43">
							<path id="XMLID_132_" class="st20" d="M285.8,148.1c0,3.6-2.9,6.4-6.4,6.4c-3.6,0-6.4-2.9-6.4-6.4"/>
						</g>
					</g>
				</g>
				<g class="st33">
					<g>
						<defs>
							<rect id="XMLID_129_" x="285.8" y="148.1" width="12.9" height="6.4"/>
						</defs>
						<clipPath id="XMLID_265_">
							<use xlink:href="#XMLID_129_"  style="overflow:visible;"/>
						</clipPath>
						<g class="st44">
							<path id="XMLID_130_" class="st20" d="M298.7,148.1c0,3.6-2.9,6.4-6.4,6.4c-3.6,0-6.4-2.9-6.4-6.4"/>
						</g>
					</g>
				</g>
				<g class="st33">
					<g>
						<defs>
							<rect id="XMLID_127_" x="298.7" y="148.1" width="12.9" height="6.4"/>
						</defs>
						<clipPath id="XMLID_266_">
							<use xlink:href="#XMLID_127_"  style="overflow:visible;"/>
						</clipPath>
						<g class="st45">
							<path id="XMLID_128_" class="st20" d="M311.5,148.1c0,3.6-2.9,6.4-6.4,6.4c-3.6,0-6.4-2.9-6.4-6.4"/>
						</g>
					</g>
				</g>
				<g class="st33">
					<g>
						<defs>
							<rect id="XMLID_125_" x="311.5" y="148.1" width="12.9" height="6.4"/>
						</defs>
						<clipPath id="XMLID_267_">
							<use xlink:href="#XMLID_125_"  style="overflow:visible;"/>
						</clipPath>
						<g class="st46">
							<path id="XMLID_126_" class="st20" d="M324.4,148.1c0,3.6-2.9,6.4-6.4,6.4c-3.6,0-6.4-2.9-6.4-6.4"/>
						</g>
					</g>
				</g>
				<g class="st33">
					<g>
						<defs>
							<rect id="XMLID_123_" x="324.4" y="148.1" width="12.9" height="6.4"/>
						</defs>
						<clipPath id="XMLID_268_">
							<use xlink:href="#XMLID_123_"  style="overflow:visible;"/>
						</clipPath>
						<g class="st47">
							<path id="XMLID_124_" class="st20" d="M337.3,148.1c0,3.6-2.9,6.4-6.4,6.4s-6.4-2.9-6.4-6.4"/>
						</g>
					</g>
				</g>
				<g class="st33">
					<g>
						<defs>
							<rect id="XMLID_121_" x="337.3" y="148.1" width="12.9" height="6.4"/>
						</defs>
						<clipPath id="XMLID_271_">
							<use xlink:href="#XMLID_121_"  style="overflow:visible;"/>
						</clipPath>
						<g class="st48">
							<path id="XMLID_122_" class="st20" d="M350.2,148.1c0,3.6-2.9,6.4-6.4,6.4c-3.6,0-6.4-2.9-6.4-6.4"/>
						</g>
					</g>
				</g>
				<g class="st33">
					<g>
						<defs>
							<rect id="XMLID_119_" x="350.2" y="148.1" width="12.9" height="6.4"/>
						</defs>
						<clipPath id="XMLID_272_">
							<use xlink:href="#XMLID_119_"  style="overflow:visible;"/>
						</clipPath>
						<g class="st49">
							<path id="XMLID_120_" class="st20" d="M363.1,148.1c0,3.6-2.9,6.4-6.4,6.4c-3.6,0-6.4-2.9-6.4-6.4"/>
						</g>
					</g>
				</g>
				<g class="st33">
					<g>
						<defs>
							<rect id="XMLID_117_" x="363.1" y="148.1" width="12.9" height="6.4"/>
						</defs>
						<clipPath id="XMLID_273_">
							<use xlink:href="#XMLID_117_"  style="overflow:visible;"/>
						</clipPath>
						<g class="st50">
							<path id="XMLID_118_" class="st20" d="M375.9,148.1c0,3.6-2.9,6.4-6.4,6.4c-3.6,0-6.4-2.9-6.4-6.4"/>
						</g>
					</g>
				</g>
				<g class="st33">
					<g>
						<defs>
							<rect id="XMLID_115_" x="157" y="146.1" width="219" height="2.1"/>
						</defs>
						<clipPath id="XMLID_274_">
							<use xlink:href="#XMLID_115_"  style="overflow:visible;"/>
						</clipPath>
						<g class="st51">
							<rect id="XMLID_116_" x="157" y="146.1" class="st20" width="219" height="2.1"/>
						</g>
					</g>
				</g>
			</g>
			<g class="st18">
				<g>
					<defs>
						<rect id="XMLID_112_" x="309.6" y="171.9" width="19.9" height="0.4"/>
					</defs>
					<clipPath id="XMLID_275_">
						<use xlink:href="#XMLID_112_"  style="overflow:visible;"/>
					</clipPath>
					<g class="st52">
						<rect id="XMLID_113_" x="309.6" y="171.9" class="st20" width="19.9" height="0.4"/>
					</g>
				</g>
			</g>
			<g>
				<polygon id="XMLID_111_" class="st1" points="192.6,104 182.7,104 157,141.9 169.9,141.9 				"/>
			</g>
			<g>
				<polygon id="XMLID_110_" class="st4" points="202.4,104 192.6,104 169.9,141.9 182.7,141.9 				"/>
			</g>
			<g>
				<polygon id="XMLID_109_" class="st1" points="212.3,104 202.4,104 182.7,141.9 195.6,141.9 				"/>
			</g>
			<g>
				<polygon id="XMLID_108_" class="st4" points="222.1,104 212.3,104 195.6,141.9 208.5,141.9 				"/>
			</g>
			<g>
				<polygon id="XMLID_107_" class="st1" points="232,104 222.1,104 208.5,141.9 221.4,141.9 				"/>
			</g>
			<g>
				<polygon id="XMLID_106_" class="st4" points="241.8,104 232,104 221.4,141.9 234.3,141.9 				"/>
			</g>
			<g>
				<polygon id="XMLID_105_" class="st1" points="251.7,104 241.8,104 234.3,141.9 247.1,141.9 				"/>
			</g>
			<g>
				<polygon id="XMLID_104_" class="st4" points="261.5,104 251.7,104 247.1,141.9 260,141.9 				"/>
			</g>
			<g>
				<polygon id="XMLID_103_" class="st1" points="271.4,104 261.5,104 260,141.9 272.9,141.9 				"/>
			</g>
			<g>
				<polygon id="XMLID_102_" class="st4" points="281.2,104 271.4,104 272.9,141.9 285.8,141.9 				"/>
			</g>
			<g>
				<polygon id="XMLID_101_" class="st1" points="291.1,104 281.2,104 285.8,141.9 298.7,141.9 				"/>
			</g>
			<g>
				<polygon id="XMLID_100_" class="st4" points="300.9,104 291.1,104 298.7,141.9 311.5,141.9 				"/>
			</g>
			<g>
				<polygon id="XMLID_99_" class="st1" points="310.8,104 300.9,104 311.5,141.9 324.4,141.9 				"/>
			</g>
			<g>
				<polygon id="XMLID_98_" class="st4" points="320.6,104 310.8,104 324.4,141.9 337.3,141.9 				"/>
			</g>
			<g>
				<polygon id="XMLID_97_" class="st1" points="330.5,104 320.6,104 337.3,141.9 350.2,141.9 				"/>
			</g>
			<g>
				<polygon id="XMLID_96_" class="st1" points="350.2,104 340.3,104 363.1,141.9 375.9,141.9 				"/>
			</g>
			<g>
				<polygon id="XMLID_95_" class="st4" points="340.3,104 330.5,104 350.2,141.9 363.1,141.9 				"/>
			</g>
			<g>
				<path id="XMLID_94_" class="st53" d="M182.7,141.9h-12.9v3.3c0,3.6,2.9,6.4,6.4,6.4c3.6,0,6.4-2.9,6.4-6.4V141.9z"/>
			</g>
			<g>
				<path id="XMLID_93_" class="st53" d="M195.6,145.2c0,3.6,2.9,6.4,6.4,6.4c3.6,0,6.4-2.9,6.4-6.4v-3.3h-12.9V145.2z"/>
			</g>
			<g>
				<path id="XMLID_92_" class="st53" d="M234.3,141.9h-12.9v3.3c0,3.6,2.9,6.4,6.4,6.4c3.6,0,6.4-2.9,6.4-6.4V141.9z"/>
			</g>
			<g>
				<path id="XMLID_91_" class="st53" d="M260,141.9h-12.9v3.3c0,3.6,2.9,6.4,6.4,6.4c3.6,0,6.4-2.9,6.4-6.4V141.9z"/>
			</g>
			<g>
				<path id="XMLID_90_" class="st53" d="M272.9,145.2L272.9,145.2c0,3.6,2.9,6.4,6.4,6.4c3.6,0,6.4-2.9,6.4-6.4v-3.3h-12.9V145.2z"
					/>
			</g>
			<g>
				<path id="XMLID_89_" class="st53" d="M311.5,141.9h-12.9v3.3c0,3.6,2.9,6.4,6.4,6.4c3.6,0,6.4-2.9,6.4-6.4V141.9z"/>
			</g>
			<g>
				<path id="XMLID_88_" class="st53" d="M324.4,145.2L324.4,145.2c0,3.6,2.9,6.4,6.4,6.4c3.6,0,6.4-2.9,6.4-6.4h0v-3.3h-12.9V145.2
					z"/>
			</g>
			<g>
				<path id="XMLID_87_" class="st53" d="M350.2,141.9v3.3h0c0,3.6,2.9,6.4,6.4,6.4c3.6,0,6.4-2.9,6.4-6.4h0v-3.3H350.2z"/>
			</g>
			<g>
				<path id="XMLID_86_" class="st54" d="M157,145.2c0,3.6,2.9,6.4,6.4,6.4c3.6,0,6.4-2.9,6.4-6.4v-3.3H157V145.2z"/>
			</g>
			<g>
				<path id="XMLID_85_" class="st54" d="M182.7,145.2L182.7,145.2c0,3.6,2.9,6.4,6.4,6.4c3.6,0,6.4-2.9,6.4-6.4v-3.3h-12.9V145.2z"
					/>
			</g>
			<g>
				<path id="XMLID_84_" class="st54" d="M208.5,145.2c0,3.6,2.9,6.4,6.4,6.4c3.6,0,6.4-2.9,6.4-6.4v-3.3h-12.9V145.2z"/>
			</g>
			<g>
				<path id="XMLID_83_" class="st54" d="M234.3,145.2c0,3.6,2.9,6.4,6.4,6.4c3.6,0,6.4-2.9,6.4-6.4v-3.3h-12.9V145.2z"/>
			</g>
			<g>
				<path id="XMLID_82_" class="st54" d="M260,145.2L260,145.2c0,3.6,2.9,6.4,6.4,6.4c3.6,0,6.4-2.9,6.4-6.4v-3.3H260V145.2z"/>
			</g>
			<g>
				<path id="XMLID_81_" class="st54" d="M285.8,145.2c0,3.6,2.9,6.4,6.4,6.4c3.6,0,6.4-2.9,6.4-6.4v-3.3h-12.9V145.2z"/>
			</g>
			<g>
				<path id="XMLID_80_" class="st54" d="M311.6,145.2L311.6,145.2c0,3.6,2.9,6.4,6.4,6.4c3.6,0,6.4-2.9,6.4-6.4h0v-3.3h-12.9V145.2
					z"/>
			</g>
			<g>
				<path id="XMLID_79_" class="st54" d="M337.3,145.2L337.3,145.2c0,3.6,2.9,6.4,6.4,6.4c3.6,0,6.4-2.9,6.4-6.4h0v-3.3h-12.9V145.2
					z"/>
			</g>
			<g>
				<path id="XMLID_78_" class="st54" d="M363.1,141.9v3.3h0c0,3.6,2.9,6.4,6.4,6.4c3.6,0,6.4-2.9,6.4-6.4h0v-3.3H363.1z"/>
			</g>
			<g class="st18">
				<g>
					<defs>
						<rect id="XMLID_76_" x="226.2" y="60.4" width="79.6" height="19.9"/>
					</defs>
					<clipPath id="XMLID_286_">
						<use xlink:href="#XMLID_76_"  style="overflow:visible;"/>
					</clipPath>
					<g class="st55">
						<rect id="XMLID_77_" x="226.2" y="60.4" class="st20" width="79.6" height="19.9"/>
					</g>
				</g>
			</g>
			<g>
				<rect id="XMLID_75_" x="227.1" y="61.2" class="st4" width="78.8" height="19.1"/>
			</g>
			<g class="st18">
				<g>
					<defs>
						<rect id="XMLID_73_" x="309.2" y="77" width="0.8" height="7.5"/>
					</defs>
					<clipPath id="XMLID_287_">
						<use xlink:href="#XMLID_73_"  style="overflow:visible;"/>
					</clipPath>
					<g class="st56">
						<rect id="XMLID_74_" x="309.2" y="77" class="st20" width="0.8" height="7.5"/>
					</g>
				</g>
			</g>
		</g>
		<g>
			<g>
				<path class="st57" d="M128.8,119.5H56.7c-6.3,0-11.4,5.2-11.4,11.5v106.6c0,6.4,5.1,11.5,11.4,11.5h72.1
					c6.3,0,11.4-5.2,11.4-11.5V131C140.2,124.6,135.1,119.5,128.8,119.5z M129.7,237.6c0,0.5-0.4,0.9-0.9,0.9H56.7
					c-0.5,0-0.9-0.4-0.9-0.9V131c0-0.5,0.4-0.9,0.9-0.9h72.1c0.5,0,0.9,0.4,0.9,0.9V237.6z"/>
				<path id="XMLID_70_" class="st58" d="M129.2,239.1H56v1.6c0,0.5,0.4,0.9,0.9,0.9h75.7c0.5,0,0.9-0.4,0.9-0.9V131.3
					c0-0.5-0.4-0.9-0.9-0.9h-2.5v107.8C130.1,238.7,129.7,239.1,129.2,239.1z"/>
				<path id="XMLID_69_" class="st58" d="M48.6,132.4c0-6.4,3.4-10.4,9.8-10.4h73.8c1.8,0,3.5,0.4,5,1.2c-2.1-2.3-5.1-3.7-8.4-3.7
					H56.7c-6.3,0-11.4,5.2-11.4,11.5v106.6c0,4.5,2.6,8.5,6.4,10.3c-1.9-2.1-3.1-4.8-3.1-7.8V132.4z"/>
				<path id="XMLID_68_" class="st59" d="M134.3,120.7c1.9,2.1,3.1,4.8,3.1,7.8v106.6c0,6.4-5.1,11.5-11.4,11.5H53.8
					c-1.8,0-3.5-0.4-5-1.2c2.1,2.3,5.1,3.7,8.4,3.7h72.1c6.3,0,11.4-5.2,11.4-11.5V131C140.7,126.5,138.1,122.5,134.3,120.7z"/>
				<path id="XMLID_67_" class="st59" d="M55,239V130.6c0-0.5,0.4-0.9,0.9-0.9H133v-1.6c0-0.5-0.4-0.9-0.9-0.9H52.5
					c-0.5,0-0.9,0.4-0.9,0.9v110c0,0.5,0.4,0.9,0.9,0.9H55z"/>
				<path id="XMLID_66_" class="st60" d="M128.8,130.1H56.7c-0.5,0-0.9,0.4-0.9,0.9v106.6c0,0.5,0.4,0.9,0.9,0.9h72.1
					c0.5,0,0.9-0.4,0.9-0.9V131C129.7,130.5,129.3,130.1,128.8,130.1z"/>
				<g>
					<ellipse id="XMLID_65_" class="st61" cx="122.8" cy="232.2" rx="3.9" ry="3.8"/>
					<ellipse id="XMLID_64_" class="st62" cx="121.5" cy="230.7" rx="3.9" ry="3.8"/>
					<path id="XMLID_63_" class="st62" d="M118.3,231.8c0-2.1,1.8-3.8,3.9-3.8c1.1,0,2,0.4,2.7,1.1c-0.6-1.3-2-2.2-3.6-2.2
						c-2.2,0-3.9,1.7-3.9,3.8c0,1.1,0.5,2,1.2,2.7C118.5,232.9,118.3,232.4,118.3,231.8z"/>
				</g>
				<g>
					<ellipse id="XMLID_62_" class="st61" cx="62.7" cy="232.2" rx="3.9" ry="3.8"/>
					<ellipse id="XMLID_61_" class="st62" cx="61.4" cy="230.7" rx="3.9" ry="3.8"/>
					<path id="XMLID_60_" class="st62" d="M58.3,231.8c0-2.1,1.8-3.8,3.9-3.8c1.1,0,2,0.4,2.7,1.1c-0.6-1.3-2-2.2-3.6-2.2
						c-2.2,0-3.9,1.7-3.9,3.8c0,1.1,0.5,2,1.2,2.7C58.4,232.9,58.3,232.4,58.3,231.8z"/>
				</g>
				<g>
					<ellipse id="XMLID_59_" class="st61" cx="122.8" cy="137.6" rx="3.9" ry="3.8"/>
					<ellipse id="XMLID_58_" class="st62" cx="121.5" cy="136.1" rx="3.9" ry="3.8"/>
					<path id="XMLID_57_" class="st62" d="M118.3,137.2c0-2.1,1.8-3.8,3.9-3.8c1.1,0,2,0.4,2.7,1.1c-0.6-1.3-2-2.2-3.6-2.2
						c-2.2,0-3.9,1.7-3.9,3.8c0,1.1,0.5,2,1.2,2.7C118.5,138.4,118.3,137.8,118.3,137.2z"/>
				</g>
				<g>
					<ellipse id="XMLID_56_" class="st61" cx="62.7" cy="137.6" rx="3.9" ry="3.8"/>
					<ellipse id="XMLID_55_" class="st62" cx="61.4" cy="136.1" rx="3.9" ry="3.8"/>
					<path id="XMLID_54_" class="st62" d="M58.3,137.2c0-2.1,1.8-3.8,3.9-3.8c1.1,0,2,0.4,2.7,1.1c-0.6-1.3-2-2.2-3.6-2.2
						c-2.2,0-3.9,1.7-3.9,3.8c0,1.1,0.5,2,1.2,2.7C58.4,138.4,58.3,137.8,58.3,137.2z"/>
				</g>
				<g>
					<path class="st57" d="M92.8,151c-15.6,0-28.3,12.8-28.3,28.6c0,15.8,12.7,28.6,28.3,28.6c15.6,0,28.3-12.8,28.3-28.6
						C121.1,163.8,108.4,151,92.8,151z"/>
					<path class="st62" d="M92.8,148.1c-17.2,0-31.2,14.1-31.2,31.5c0,17.4,14,31.5,31.2,31.5c17.2,0,31.2-14.1,31.2-31.5
						C124,162.2,110,148.1,92.8,148.1z M92.8,208.2c-15.6,0-28.3-12.8-28.3-28.6c0-15.8,12.7-28.6,28.3-28.6
						c15.6,0,28.3,12.8,28.3,28.6C121.1,195.4,108.4,208.2,92.8,208.2z"/>
					<ellipse id="XMLID_50_" class="st60" cx="92.6" cy="179.2" rx="8.4" ry="8.6"/>
					<path id="XMLID_49_" class="st63" d="M98.5,175.8c1.7,3.4-10.6,9.6-12.3,6.2c-1.7-3.4-0.4-7.5,3-9.2
						C92.7,171,96.8,172.4,98.5,175.8z"/>
				</g>
				<path class="st64" d="M65.6,179.6c0,15.2,12.2,27.5,27.2,27.5c15,0,27.2-12.3,27.2-27.5c0-15.2-12.2-27.5-27.2-27.5
					C77.7,152.1,65.6,164.4,65.6,179.6z M69.8,179.7c0-13,10.3-23.6,23.1-23.6c12.8,0,23.1,10.6,23.1,23.6c0,13-10.3,23.6-23.1,23.6
					C80.1,203.3,69.8,192.8,69.8,179.7z"/>
				<path class="st65" d="M69.2,179.6c0,13.1,10.5,23.8,23.5,23.8c13,0,23.5-10.7,23.5-23.8c0-13.1-10.5-23.8-23.5-23.8
					C79.8,155.8,69.2,166.5,69.2,179.6z M72.9,179.7c0-11.3,9-20.4,20-20.4c11,0,20,9.1,20,20.4c0,11.3-8.9,20.4-20,20.4
					C81.8,200.1,72.9,191,72.9,179.7z"/>
			</g>
			<g>
				<path class="st57" d="M518,119.5h-72.1c-6.3,0-11.4,5.2-11.4,11.5v106.6c0,6.4,5.1,11.5,11.4,11.5H518c6.3,0,11.4-5.2,11.4-11.5
					V131C529.4,124.6,524.3,119.5,518,119.5z M518.8,237.6c0,0.5-0.4,0.9-0.9,0.9h-72.1c-0.5,0-0.9-0.4-0.9-0.9V131
					c0-0.5,0.4-0.9,0.9-0.9H518c0.5,0,0.9,0.4,0.9,0.9V237.6z"/>
				<path id="XMLID_30_" class="st58" d="M518.4,239.1h-73.3v1.6c0,0.5,0.4,0.9,0.9,0.9h75.7c0.5,0,0.9-0.4,0.9-0.9V131.3
					c0-0.5-0.4-0.9-0.9-0.9h-2.5v107.8C519.3,238.7,518.9,239.1,518.4,239.1z"/>
				<path id="XMLID_29_" class="st58" d="M437.8,132.4c0-6.4,3.4-10.4,9.8-10.4h73.8c1.8,0,3.5,0.4,5,1.2c-2.1-2.3-5.1-3.7-8.4-3.7
					h-72.1c-6.3,0-11.4,5.2-11.4,11.5v106.6c0,4.5,2.6,8.5,6.4,10.3c-1.9-2.1-3.1-4.8-3.1-7.8V132.4z"/>
				<path id="XMLID_28_" class="st59" d="M523.4,120.7c1.9,2.1,3.1,4.8,3.1,7.8v106.6c0,6.4-5.1,11.5-11.4,11.5H443
					c-1.8,0-3.5-0.4-5-1.2c2.1,2.3,5.1,3.7,8.4,3.7h72.1c6.3,0,11.4-5.2,11.4-11.5V131C529.8,126.5,527.2,122.5,523.4,120.7z"/>
				<path id="XMLID_27_" class="st59" d="M444.2,239V130.6c0-0.5,0.4-0.9,0.9-0.9h77.2v-1.6c0-0.5-0.4-0.9-0.9-0.9h-79.6
					c-0.5,0-0.9,0.4-0.9,0.9v110c0,0.5,0.4,0.9,0.9,0.9H444.2z"/>
				<path id="XMLID_26_" class="st60" d="M518,130.1h-72.1c-0.5,0-0.9,0.4-0.9,0.9v106.6c0,0.5,0.4,0.9,0.9,0.9H518
					c0.5,0,0.9-0.4,0.9-0.9V131C518.8,130.5,518.5,130.1,518,130.1z"/>
				<g>
					<ellipse id="XMLID_25_" class="st61" cx="511.9" cy="232.2" rx="3.9" ry="3.8"/>
					<ellipse id="XMLID_24_" class="st62" cx="510.6" cy="230.7" rx="3.9" ry="3.8"/>
					<path id="XMLID_23_" class="st62" d="M507.5,231.8c0-2.1,1.8-3.8,3.9-3.8c1.1,0,2,0.4,2.7,1.1c-0.6-1.3-2-2.2-3.6-2.2
						c-2.2,0-3.9,1.7-3.9,3.8c0,1.1,0.5,2,1.2,2.7C507.7,232.9,507.5,232.4,507.5,231.8z"/>
				</g>
				<g>
					<ellipse id="XMLID_22_" class="st61" cx="451.8" cy="232.2" rx="3.9" ry="3.8"/>
					<ellipse id="XMLID_21_" class="st62" cx="450.5" cy="230.7" rx="3.9" ry="3.8"/>
					<path id="XMLID_20_" class="st62" d="M447.4,231.8c0-2.1,1.8-3.8,3.9-3.8c1.1,0,2,0.4,2.7,1.1c-0.6-1.3-2-2.2-3.6-2.2
						c-2.2,0-3.9,1.7-3.9,3.8c0,1.1,0.5,2,1.2,2.7C447.6,232.9,447.4,232.4,447.4,231.8z"/>
				</g>
				<g>
					<ellipse id="XMLID_19_" class="st61" cx="511.9" cy="137.6" rx="3.9" ry="3.8"/>
					<ellipse id="XMLID_18_" class="st62" cx="510.6" cy="136.1" rx="3.9" ry="3.8"/>
					<path id="XMLID_17_" class="st62" d="M507.5,137.2c0-2.1,1.8-3.8,3.9-3.8c1.1,0,2,0.4,2.7,1.1c-0.6-1.3-2-2.2-3.6-2.2
						c-2.2,0-3.9,1.7-3.9,3.8c0,1.1,0.5,2,1.2,2.7C507.7,138.4,507.5,137.8,507.5,137.2z"/>
				</g>
				<g>
					<ellipse id="XMLID_16_" class="st61" cx="451.8" cy="137.6" rx="3.9" ry="3.8"/>
					<ellipse id="XMLID_15_" class="st62" cx="450.5" cy="136.1" rx="3.9" ry="3.8"/>
					<path id="XMLID_14_" class="st62" d="M447.4,137.2c0-2.1,1.8-3.8,3.9-3.8c1.1,0,2,0.4,2.7,1.1c-0.6-1.3-2-2.2-3.6-2.2
						c-2.2,0-3.9,1.7-3.9,3.8c0,1.1,0.5,2,1.2,2.7C447.6,138.4,447.4,137.8,447.4,137.2z"/>
				</g>
				<g>
					<path class="st57" d="M481.9,151c-15.6,0-28.3,12.8-28.3,28.6c0,15.8,12.7,28.6,28.3,28.6c15.6,0,28.3-12.8,28.3-28.6
						C510.3,163.8,497.6,151,481.9,151z"/>
					<path class="st62" d="M481.9,148.1c-17.2,0-31.2,14.1-31.2,31.5c0,17.4,14,31.5,31.2,31.5c17.2,0,31.2-14.1,31.2-31.5
						C513.2,162.2,499.2,148.1,481.9,148.1z M481.9,208.2c-15.6,0-28.3-12.8-28.3-28.6c0-15.8,12.7-28.6,28.3-28.6
						c15.6,0,28.3,12.8,28.3,28.6C510.3,195.4,497.6,208.2,481.9,208.2z"/>
					<ellipse id="XMLID_10_" class="st60" cx="481.7" cy="179.2" rx="8.4" ry="8.6"/>
					<path id="XMLID_9_" class="st63" d="M487.7,175.8c1.7,3.4-10.6,9.6-12.3,6.2c-1.7-3.4-0.4-7.5,3-9.2
						C481.8,171,486,172.4,487.7,175.8z"/>
				</g>
				<path class="st64" d="M454.8,179.6c0,15.2,12.2,27.5,27.2,27.5c15,0,27.2-12.3,27.2-27.5c0-15.2-12.2-27.5-27.2-27.5
					C466.9,152.1,454.8,164.4,454.8,179.6z M458.9,179.7c0-13,10.3-23.6,23.1-23.6c12.8,0,23.1,10.6,23.1,23.6
					c0,13-10.3,23.6-23.1,23.6C469.3,203.3,458.9,192.8,458.9,179.7z"/>
				<path class="st65" d="M458.4,179.6c0,13.1,10.5,23.8,23.5,23.8c13,0,23.5-10.7,23.5-23.8c0-13.1-10.5-23.8-23.5-23.8
					C468.9,155.8,458.4,166.5,458.4,179.6z M462,179.7c0-11.3,9-20.4,20-20.4c11,0,20,9.1,20,20.4c0,11.3-8.9,20.4-20,20.4
					C471,200.1,462,191,462,179.7z"/>
			</g>
		</g>
		<g>
			<g id="XMLID_276_">
				<g id="XMLID_284_">
					<path id="XMLID_285_" class="st66" d="M48.7,103.8c0.5-1.4,1.6-2,3-2.2c1.3-0.2,2.5-0.1,3.6,0.5c0,0,0,0,0.1,0
						c0-4.2,0-8.4,0-12.7c0.6-0.2,1.1-0.3,1.7-0.5c4.3-1.2,8.5-2.3,12.8-3.5c0,0,0.1,0,0.1,0c0,0,0.1,0,0.1,0c0,0,0,0.1,0,0.1
						c0,4.9,0,9.9,0,14.8c-0.3,1.2-1.2,1.8-2.3,2.1c-1.4,0.4-2.9,0.3-4.2-0.4c-0.3-0.2-0.6-0.4-0.9-0.6c-0.8-0.8-0.8-2,0-2.8
						c0.6-0.6,1.3-0.9,2.1-1.1c1.3-0.3,2.6-0.2,3.8,0.5c0,0,0,0,0.1,0c0-3.2,0-6.4,0-9.6c-4,1.1-8,2.2-12,3.3c0,0.1,0,0.2,0,0.3
						c0,4,0,7.9,0,11.9c0,0.8-0.3,1.4-0.9,1.9c-0.7,0.5-1.5,0.8-2.3,0.9c-0.1,0-0.1,0-0.2,0c-0.4,0-0.8,0-1.2,0
						c-0.1,0-0.3-0.1-0.4-0.1c-1.3-0.3-2.5-0.8-3-2.2C48.7,104.3,48.7,104.1,48.7,103.8z"/>
				</g>
				<g id="XMLID_282_">
					<path id="XMLID_283_" class="st66" d="M-0.2,131.2c0.7-2.1,2.3-2.9,4.3-3.2c1.8-0.3,3.6-0.1,5.2,0.8c0,0,0.1,0,0.1,0.1
						c0-6.1,0-12.2,0-18.3c0.8-0.2,1.6-0.4,2.4-0.7c6.2-1.7,12.3-3.4,18.5-5c0.1,0,0.1,0,0.2-0.1c0,0,0.1,0,0.1,0.1
						c0,0.1,0,0.1,0,0.2c0,7.1,0,14.2,0,21.3c-0.5,1.7-1.8,2.5-3.4,3c-2.1,0.6-4.1,0.5-6-0.5c-0.5-0.2-0.9-0.6-1.2-0.9
						c-1.2-1.2-1.2-2.9,0-4.1c0.8-0.9,1.9-1.4,3.1-1.6c1.9-0.4,3.8-0.2,5.5,0.7c0,0,0.1,0,0.1,0.1c0-4.6,0-9.2,0-13.9
						c-5.8,1.6-11.5,3.1-17.3,4.7c0,0.1,0,0.2,0,0.4c0,5.7,0,11.5,0,17.2c0,1.1-0.5,2-1.3,2.7c-1,0.8-2.1,1.2-3.4,1.3
						c-0.1,0-0.2,0-0.3,0.1c-0.6,0-1.1,0-1.7,0c-0.2,0-0.4-0.1-0.6-0.1c-1.9-0.4-3.6-1.1-4.3-3.2C-0.2,131.8-0.2,131.5-0.2,131.2z"
						/>
				</g>
			</g>
		</g>
		<g>
			<g id="XMLID_277_">
				<g id="XMLID_280_">
					<path id="XMLID_281_" class="st66" d="M467.7,74.2c0.5-1.4,1.6-2,3-2.2c1.3-0.2,2.5-0.1,3.6,0.5c0,0,0,0,0.1,0
						c0-4.2,0-8.4,0-12.7c0.6-0.2,1.1-0.3,1.7-0.5c4.3-1.2,8.5-2.3,12.8-3.5c0,0,0.1,0,0.1,0c0,0,0.1,0,0.1,0c0,0,0,0.1,0,0.1
						c0,4.9,0,9.9,0,14.8c-0.3,1.2-1.2,1.8-2.3,2.1c-1.4,0.4-2.9,0.3-4.2-0.4c-0.3-0.2-0.6-0.4-0.9-0.6c-0.8-0.8-0.8-2,0-2.8
						c0.6-0.6,1.3-0.9,2.1-1.1c1.3-0.3,2.6-0.2,3.8,0.5c0,0,0,0,0.1,0c0-3.2,0-6.4,0-9.6c-4,1.1-8,2.2-12,3.3c0,0.1,0,0.2,0,0.3
						c0,4,0,7.9,0,11.9c0,0.8-0.3,1.4-0.9,1.9c-0.7,0.5-1.5,0.8-2.3,0.9c-0.1,0-0.1,0-0.2,0c-0.4,0-0.8,0-1.2,0
						c-0.1,0-0.3-0.1-0.4-0.1c-1.3-0.3-2.5-0.8-3-2.2C467.7,74.6,467.7,74.4,467.7,74.2z"/>
				</g>
				<g id="XMLID_278_">
					<path id="XMLID_279_" class="st66" d="M418.8,101.6c0.7-2.1,2.3-2.9,4.3-3.2c1.8-0.3,3.6-0.1,5.2,0.8c0,0,0.1,0,0.1,0.1
						c0-6.1,0-12.2,0-18.3c0.8-0.2,1.6-0.4,2.4-0.7c6.2-1.7,12.3-3.4,18.5-5c0.1,0,0.1,0,0.2-0.1c0,0,0.1,0,0.1,0.1
						c0,0.1,0,0.1,0,0.2c0,7.1,0,14.2,0,21.3c-0.5,1.7-1.8,2.5-3.4,3c-2.1,0.6-4.1,0.5-6-0.5c-0.5-0.2-0.9-0.6-1.2-0.9
						c-1.2-1.2-1.2-2.9,0-4.1c0.8-0.9,1.9-1.4,3.1-1.6c1.9-0.4,3.8-0.2,5.5,0.7c0,0,0.1,0,0.1,0.1c0-4.6,0-9.2,0-13.9
						c-5.8,1.6-11.5,3.1-17.3,4.7c0,0.1,0,0.2,0,0.4c0,5.7,0,11.5,0,17.2c0,1.1-0.5,2-1.3,2.7c-1,0.8-2.1,1.2-3.4,1.3
						c-0.1,0-0.2,0-0.3,0.1c-0.6,0-1.1,0-1.7,0c-0.2,0-0.4-0.1-0.6-0.1c-1.9-0.4-3.6-1.1-4.3-3.2
						C418.8,102.2,418.8,101.9,418.8,101.6z"/>
				</g>
			</g>
		</g>
	</g>
</g>
</svg>
